<svg viewBox="0 0 24 24" fill="none" xmlns="http://www.w3.org/2000/svg"><g clip-path="url(#a)"><path d="M6.54 5c.06.89.21 1.76.45 2.59l-1.2 1.2c-.41-1.2-.67-2.47-.76-3.79h1.51Zm9.86 12.02c.85.24 1.72.39 2.6.45v1.49a15.43 15.43 0 0 1-3.8-.75l1.2-1.19Zm-8.9-14.02h-3.5a1 1 0 0 0-1 1 17 17 0 0 0 17 17 1 1 0 0 0 1-1v-3.49a1 1 0 0 0-1-1c-1.24 0-2.45-.2-3.57-.57a1.02 1.02 0 0 0-1.02.24l-2.2 2.2a15.15 15.15 0 0 1-6.59-6.59l2.2-2.2a1 1 0 0 0 .25-1.02 11.36 11.36 0 0 1-.57-3.57 1 1 0 0 0-1-1Z" fill="#D4D7E6"/></g><defs><clipPath id="a"><path fill="#fff" d="M0 0h24v24h-24z"/></clipPath></defs></svg>