<svg viewBox="0 0 24 24" fill="none" xmlns="http://www.w3.org/2000/svg"><path d="M22 5.13c-.74.36-1.53.6-2.36.72a4.51 4.51 0 0 0 1.8-2.52c-.79.52-1.66.9-2.6 1.1a3.92 3.92 0 0 0-3-1.43c-2.26 0-4.1 2.04-4.1 4.54 0 .36.04.7.1 1.04-3.4-.19-6.42-2-8.45-4.75a4.89 4.89 0 0 0 1.27 6.07 3.8 3.8 0 0 1-1.86-.57v.05c0 2.2 1.42 4.04 3.3 4.46a3.78 3.78 0 0 1-1.86.08 4.18 4.18 0 0 0 3.83 3.15 7.74 7.74 0 0 1-6.07 1.88 10.8 10.8 0 0 0 6.29 2.05c7.55 0 11.67-6.93 11.67-12.93l-.01-.6c.8-.63 1.5-1.43 2.05-2.34Z" fill="#D4D7E6"/></svg>