<svg viewBox="0 0 22 22" fill="none" xmlns="http://www.w3.org/2000/svg"><path fill-rule="evenodd" clip-rule="evenodd" d="M11 2.13c2.9 0 3.23.01 4.37.06a5.9 5.9 0 0 1 2.02.38 3.53 3.53 0 0 1 2.04 2.05c.16.38.34.95.38 2.01.05 1.14.07 1.48.07 4.37 0 2.9-.02 3.24-.07 4.38a5.9 5.9 0 0 1-.37 2.01c-.2.5-.43.87-.8 1.25a3.3 3.3 0 0 1-1.25.8c-.39.15-.96.33-2.02.38a75.2 75.2 0 0 1-4.37.06c-2.9 0-3.23-.01-4.37-.06a5.91 5.91 0 0 1-2.02-.38c-.5-.2-.86-.43-1.24-.8a3.3 3.3 0 0 1-.8-1.25 6.02 6.02 0 0 1-.38-2.01 75.1 75.1 0 0 1-.07-4.38c0-2.89.02-3.23.07-4.37a5.9 5.9 0 0 1 .37-2.01c.2-.5.43-.87.8-1.25a3.3 3.3 0 0 1 1.25-.8c.39-.15.96-.33 2.02-.38 1.14-.05 1.48-.06 4.37-.06Zm0-1.95c-2.94 0-3.3 0-4.46.06a7.93 7.93 0 0 0-2.63.5 5.48 5.48 0 0 0-3.17 3.17 7.94 7.94 0 0 0-.5 2.63 77.99 77.99 0 0 0-.06 4.46c0 2.94 0 3.3.06 4.46.05 1.16.24 1.94.5 2.63a5.3 5.3 0 0 0 1.25 1.92c.6.6 1.21.97 1.92 1.25.69.27 1.47.45 2.63.5 1.16.06 1.52.07 4.46.07 2.95 0 3.31-.01 4.47-.07a7.99 7.99 0 0 0 2.63-.5 5.27 5.27 0 0 0 1.91-1.25c.6-.6.98-1.2 1.26-1.92.26-.68.45-1.47.5-2.63.05-1.15.06-1.52.06-4.46s-.01-3.3-.06-4.46a7.99 7.99 0 0 0-.5-2.63 5.28 5.28 0 0 0-1.26-1.92c-.6-.6-1.2-.97-1.91-1.25a7.94 7.94 0 0 0-2.63-.5 85.19 85.19 0 0 0-4.47-.06Zm0 5.26a5.56 5.56 0 1 0 0 11.12 5.56 5.56 0 0 0 0-11.12Zm0 9.17a3.6 3.6 0 1 1 0-7.22 3.6 3.6 0 0 1 0 7.22Zm7.08-9.39a1.3 1.3 0 1 1-2.6 0 1.3 1.3 0 0 1 2.6 0Z" fill="#D4D7E6"/></svg>