<svg viewBox="0 0 185 24" fill="none" xmlns="http://www.w3.org/2000/svg"><path fill="#B79C10" d="M.02 11h87v13h-87z"/><path d="m15.2 5.6-7.76 18.4h-4.42l2.43-5.46-5.45-12.93h4.58l3.1 8.37 3.07-8.37h4.44Zm15.3 6.49c0 .38-.02.78-.07 1.2h-9.29c.06.83.33 1.47.8 1.92a2.5 2.5 0 0 0 1.74.65c1.03 0 1.74-.44 2.14-1.3h4.37a5.92 5.92 0 0 1-1.23 2.38c-.57.7-1.3 1.25-2.18 1.65-.88.4-1.86.6-2.95.6a7.18 7.18 0 0 1-3.5-.84 5.97 5.97 0 0 1-2.4-2.4 7.4 7.4 0 0 1-.87-3.65c0-1.39.28-2.6.84-3.64a5.97 5.97 0 0 1 2.4-2.4 7.23 7.23 0 0 1 3.53-.84c1.3 0 2.45.27 3.45.81a5.82 5.82 0 0 1 2.36 2.33c.57 1 .86 2.18.86 3.53Zm-4.2-1.08c0-.7-.24-1.27-.72-1.68a2.65 2.65 0 0 0-1.8-.63c-.69 0-1.27.2-1.75.6-.47.4-.75.97-.87 1.7h5.14Zm11.67-11.01v19h-4.1v-19h4.1Zm8.28 0v19h-4.1v-19h4.1Zm10.27 19.2c-1.31 0-2.5-.29-3.55-.85a6.25 6.25 0 0 1-2.48-2.4 7.25 7.25 0 0 1-.88-3.65c0-1.37.3-2.58.9-3.62a6.17 6.17 0 0 1 2.5-2.42 7.46 7.46 0 0 1 3.56-.84c1.3 0 2.5.28 3.55.84a6.17 6.17 0 0 1 2.5 2.42c.6 1.04.9 2.25.9 3.62 0 1.38-.3 2.6-.93 3.65a6.17 6.17 0 0 1-2.52 2.4 7.46 7.46 0 0 1-3.55.84Zm0-3.56c.78 0 1.45-.29 1.99-.86.56-.58.84-1.4.84-2.48 0-1.07-.27-1.9-.82-2.47a2.56 2.56 0 0 0-1.96-.86c-.8 0-1.47.29-2 .86-.52.56-.79 1.39-.79 2.47 0 1.08.26 1.9.77 2.48.53.57 1.18.86 1.97.86Zm29.61-10.04-3.63 13.4h-4.53l-2.12-8.69-2.18 8.69h-4.51l-3.65-13.4h4.1l1.9 9.58 2.26-9.57h4.34l2.28 9.53 1.87-9.53h3.87Zm10.8 13.4-4.51-5.66v5.66h-3.36v-19h3.36v11.34l4.46-5.64h4.37l-5.85 6.68 5.9 6.62h-4.37Zm9.03-15.03c-.6 0-1.09-.19-1.49-.55a1.92 1.92 0 0 1-.57-1.42c0-.56.19-1.02.57-1.4.4-.38.9-.57 1.49-.57.6 0 1.08.2 1.46.58.4.37.6.83.6 1.39 0 .56-.2 1.03-.6 1.42-.38.36-.87.55-1.46.55Zm1.68 1.73v13.3h-3.36v-13.3h3.36Zm8.43 2.76v6.44c0 .44.1.77.3.98.23.2.6.29 1.11.29h1.56v2.83h-2.1c-2.84 0-4.26-1.38-4.26-4.13v-6.4h-1.58v-2.77h1.58l-.04-5.7h3.38l.05 5.7h2.97v2.76h-2.97Zm5.73 3.89c0-1.37.28-2.57.84-3.6a5.9 5.9 0 0 1 2.32-2.4c1-.57 2.13-.86 3.41-.86a6.4 6.4 0 0 1 4.08 1.25 5.93 5.93 0 0 1 2.19 3.45h-3.63a2.72 2.72 0 0 0-2.66-1.85c-.96 0-1.72.36-2.28 1.06a4.57 4.57 0 0 0-.84 2.95c0 1.27.28 2.25.84 2.95a2.78 2.78 0 0 0 2.28 1.04c1.36 0 2.25-.61 2.66-1.83h3.63a6.13 6.13 0 0 1-2.19 3.43 6.44 6.44 0 0 1-4.08 1.28 6.81 6.81 0 0 1-3.4-.84 6.1 6.1 0 0 1-2.33-2.4 7.53 7.53 0 0 1-.84-3.63Zm23.98-6.84c1.01 0 1.9.23 2.7.67a4.4 4.4 0 0 1 1.82 1.95c.44.85.67 1.87.67 3.07v7.8h-3.36v-7.34c0-1.06-.27-1.87-.8-2.43a2.79 2.79 0 0 0-2.15-.86 2.9 2.9 0 0 0-2.21.86c-.53.56-.8 1.37-.8 2.43v7.34h-3.35v-19h3.36v7.36a4.2 4.2 0 0 1 1.72-1.34 5.6 5.6 0 0 1 2.4-.5Zm21.94 6.55c0 .48-.03.92-.1 1.3h-9.71a3.3 3.3 0 0 0 1 2.26c.6.54 1.33.81 2.19.81 1.25 0 2.14-.53 2.66-1.6h3.63a6.12 6.12 0 0 1-6.22 4.39 7.08 7.08 0 0 1-3.45-.84 6.25 6.25 0 0 1-2.38-2.43 7.48 7.48 0 0 1-.84-3.6c0-1.37.28-2.58.84-3.62a5.86 5.86 0 0 1 2.35-2.4 7.06 7.06 0 0 1 3.48-.84c1.27 0 2.4.27 3.39.81 1 .55 1.78 1.32 2.32 2.33.56 1 .84 2.14.84 3.43Zm-3.48-.96a2.63 2.63 0 0 0-.93-2.06 3.28 3.28 0 0 0-2.23-.8c-.84 0-1.54.26-2.12.78-.56.5-.9 1.19-1.03 2.08h6.31Zm14.51-5.59c1.58 0 2.86.5 3.84 1.51.97 1 1.46 2.39 1.46 4.18v7.8h-3.36v-7.34c0-1.06-.26-1.87-.8-2.43a2.79 2.79 0 0 0-2.15-.86 2.9 2.9 0 0 0-2.21.86c-.53.56-.8 1.37-.8 2.43v7.34h-3.35v-13.3h3.36v1.66a4.56 4.56 0 0 1 1.7-1.34 5.2 5.2 0 0 1 2.3-.5Z" fill="#fff"/></svg>