<svg viewBox="0 0 186 24" fill="none" xmlns="http://www.w3.org/2000/svg"><path fill="#FFE145" d="M1 11h87v13h-87z"/><path d="m16.17 5.6-7.75 18.4h-4.42l2.42-5.46-5.44-12.93h4.58l3.1 8.37 3.07-8.37h4.44Zm15.31 6.49c0 .38-.03.78-.08 1.2h-9.28c.06.83.32 1.47.79 1.92.48.43 1.06.65 1.75.65 1.02 0 1.74-.44 2.14-1.3h4.36a5.92 5.92 0 0 1-1.22 2.38 6 6 0 0 1-2.18 1.65c-.88.4-1.87.6-2.96.6a7.18 7.18 0 0 1-3.5-.84 5.97 5.97 0 0 1-2.4-2.4 7.4 7.4 0 0 1-.86-3.65c0-1.39.28-2.6.84-3.64a5.97 5.97 0 0 1 2.4-2.4 7.23 7.23 0 0 1 3.52-.84c1.3 0 2.45.27 3.46.81a5.8 5.8 0 0 1 2.35 2.33c.58 1 .87 2.18.87 3.53Zm-4.2-1.08c0-.7-.24-1.27-.72-1.68a2.65 2.65 0 0 0-1.8-.63c-.7 0-1.28.2-1.76.6-.46.4-.75.97-.86 1.7h5.14Zm11.67-11.01v19h-4.1v-19h4.1Zm8.27 0v19h-4.1v-19h4.1Zm10.28 19.2c-1.32 0-2.5-.29-3.56-.85a6.25 6.25 0 0 1-2.47-2.4 7.25 7.25 0 0 1-.89-3.65c0-1.37.3-2.58.91-3.62a6.17 6.17 0 0 1 2.5-2.42 7.46 7.46 0 0 1 3.55-.84c1.31 0 2.5.28 3.55.84a6.17 6.17 0 0 1 2.5 2.42c.6 1.04.91 2.25.91 3.62 0 1.38-.31 2.6-.93 3.65a6.17 6.17 0 0 1-2.52 2.4 7.46 7.46 0 0 1-3.56.84Zm0-3.56c.78 0 1.44-.29 1.99-.86.56-.58.84-1.4.84-2.48 0-1.07-.28-1.9-.82-2.47a2.56 2.56 0 0 0-1.97-.86c-.8 0-1.46.29-2 .86-.52.56-.78 1.39-.78 2.47 0 1.08.25 1.9.77 2.48.52.57 1.18.86 1.96.86Zm29.6-10.04-3.62 13.4h-4.54l-2.1-8.69-2.2 8.69h-4.5l-3.65-13.4h4.1l1.9 9.58 2.25-9.57h4.35l2.28 9.53 1.87-9.53h3.86Zm10.8 13.4-4.5-5.66v5.66h-3.36v-19h3.36v11.34l4.46-5.64h4.37l-5.86 6.68 5.9 6.62h-4.36Zm9.04-15.03c-.6 0-1.1-.19-1.5-.55a1.92 1.92 0 0 1-.57-1.42c0-.56.2-1.02.58-1.4.4-.38.9-.57 1.49-.57s1.08.2 1.46.58c.4.37.6.83.6 1.39 0 .56-.2 1.03-.6 1.42-.38.36-.87.55-1.46.55Zm1.67 1.73v13.3h-3.36v-13.3h3.36Zm8.43 2.76v6.44c0 .44.1.77.31.98.23.2.6.29 1.1.29h1.57v2.83h-2.11c-2.83 0-4.25-1.38-4.25-4.13v-6.4h-1.58v-2.77h1.58l-.04-5.7h3.38l.04 5.7h2.98v2.76h-2.98Zm5.73 3.89c0-1.37.28-2.57.84-3.6a5.9 5.9 0 0 1 2.33-2.4c1-.57 2.13-.86 3.4-.86 1.66 0 3.02.41 4.09 1.25a5.93 5.93 0 0 1 2.18 3.45h-3.62a2.72 2.72 0 0 0-2.66-1.85c-.97 0-1.73.36-2.29 1.06a4.57 4.57 0 0 0-.84 2.95c0 1.27.28 2.25.84 2.95a2.78 2.78 0 0 0 2.28 1.04c1.36 0 2.25-.61 2.67-1.83h3.62a6.13 6.13 0 0 1-2.18 3.43 6.44 6.44 0 0 1-4.08 1.28 6.81 6.81 0 0 1-3.41-.84 6.1 6.1 0 0 1-2.33-2.4 7.53 7.53 0 0 1-.84-3.63Zm23.99-6.84c1 0 1.9.23 2.69.67a4.4 4.4 0 0 1 1.82 1.95c.45.85.67 1.87.67 3.07v7.8h-3.35v-7.34c0-1.06-.27-1.87-.8-2.43a2.79 2.79 0 0 0-2.16-.86 2.9 2.9 0 0 0-2.2.86c-.53.56-.8 1.37-.8 2.43v7.34h-3.36v-19h3.36v7.36a4.3 4.3 0 0 1 1.73-1.34 5.6 5.6 0 0 1 2.4-.5Zm21.94 6.55c0 .48-.03.92-.1 1.3h-9.72a3.3 3.3 0 0 0 1.01 2.26c.6.54 1.32.81 2.19.81 1.24 0 2.13-.53 2.66-1.6h3.62a6.12 6.12 0 0 1-6.21 4.39 7.08 7.08 0 0 1-3.46-.84c-1-.58-1.8-1.39-2.37-2.43a7.48 7.48 0 0 1-.84-3.6c0-1.37.28-2.58.84-3.62a5.86 5.86 0 0 1 2.35-2.4c1-.56 2.17-.84 3.48-.84 1.26 0 2.39.27 3.38.81a5.63 5.63 0 0 1 2.33 2.33c.56 1 .84 2.14.84 3.43Zm-3.48-.96a2.63 2.63 0 0 0-.94-2.06c-.6-.53-1.35-.8-2.23-.8-.83 0-1.53.26-2.11.78-.56.5-.9 1.19-1.03 2.08h6.31Zm14.5-5.59c1.59 0 2.87.5 3.84 1.51.98 1 1.47 2.39 1.47 4.18v7.8h-3.37v-7.34c0-1.06-.26-1.87-.79-2.43a2.79 2.79 0 0 0-2.16-.86 2.9 2.9 0 0 0-2.2.86c-.53.56-.8 1.37-.8 2.43v7.34h-3.36v-13.3h3.36v1.66a4.56 4.56 0 0 1 1.7-1.34c.71-.34 1.48-.5 2.31-.5Z" fill="#3F4255"/></svg>