<svg viewBox="0 0 151 32" fill="none" xmlns="http://www.w3.org/2000/svg"><path fill-rule="evenodd" clip-rule="evenodd" d="M62.19.08c-.17-.04-.33-.08-.5-.08h-1.13c-.48.16-.97.32-1.46.64-2.11 1.13-2.6 3.54-1.14 5.47.5.64.98 1.12 1.63 1.6.4.33.85.65 1.3.97.44.32.89.64 1.3.97a4.96 4.96 0 0 1 1.78 2.57c.33 1.44-.16 2.73-1.62 3.37-1.3.49-2.44.49-3.74-.16a3.17 3.17 0 0 1-1.46-1.44 2.3 2.3 0 0 1-.17-.64c-.04-.2-.08-.43-.15-.65 0-.32 0-.48.16-.48l.16.16c.49.8 1.79 1.12 2.6.48.81-.48 1.14-1.93.49-2.73-1.14-1.61-3.74-1.29-4.55.32-.49.8-.49 1.77-.16 2.57a4.72 4.72 0 0 0 3.25 3.86c1.94.8 3.9.48 5.84-.48 2.11-1.13 3.09-3.22 2.92-5.63a6.16 6.16 0 0 0-1.78-3.54c-.41-.4-.89-.75-1.39-1.1l-.89-.66-1.94-1.45a3.5 3.5 0 0 1-.82-1.29c-.16-.96.33-1.44 1.14-1.44a3.8 3.8 0 0 1 2.92 2.41l.1.1c.08.11.14.18.4.06.07-.08.2-.12.32-.16.12-.04.24-.08.32-.16.16 0 .16-.16.16-.32-.16-.49-.28-.97-.4-1.45s-.25-.97-.4-1.45c0-.16-.33-.32-.5-.16l-.32.32c-.33.32-.49.32-.65.16-.16-.08-.37-.16-.57-.24l-.57-.24c-.16 0-.32-.04-.48-.08Zm3.9 10.85c0 .64 0 1.29-.33 1.77a5.75 5.75 0 0 0-1.14-2.9c-.24-.23-.49-.44-.73-.64s-.49-.4-.73-.64c-.49-.4-.97-.76-1.46-1.12-.49-.37-.98-.73-1.46-1.13a9.5 9.5 0 0 1-1.3-1.45c-.33-.64-.49-1.28 0-2.09v.32c.16.8.65 1.3 1.14 1.77.8.49 1.62 1.13 2.43 1.77.97.64 1.79 1.29 2.44 2.1.65.63.97 1.28 1.13 2.24Zm84.91-.48v-2.89c0-.49 0-.8-.16-1.13a7.31 7.31 0 0 0-2.44-4.66 7.8 7.8 0 0 0-3.73-1.6c-.49-.17-.81-.17-1.14-.17h-.81c-.32 0-.65 0-.97.16a6.99 6.99 0 0 0-5.85 4.82c-.49 1.29-.49 2.58-.49 4.02 0 1.29.16 2.41.65 3.54a6.8 6.8 0 0 0 4.55 4.34 10 10 0 0 0 4.87.16c1.3-.32 2.6-.96 3.57-2.09 1.14-1.29 1.63-2.73 1.95-4.5Zm-11.37.96c0-.96 0-1.76-.16-2.73.08-.62.12-1.24.16-1.85.04-.65.08-1.27.17-1.85a5.7 5.7 0 0 1 .65-1.76c.65-1.3 1.62-1.77 2.92-1.77 1.13.16 2.11.64 2.6 1.6.32.65.48 1.45.65 2.26.16 2.09.16 4.01 0 6.1 0 .8-.33 1.77-.65 2.58-.49.96-1.14 1.6-2.28 1.76-1.62.33-2.76-.32-3.4-1.92a6.59 6.59 0 0 1-.66-2.42Zm9.26.97c-.33.8-.81 1.45-1.46 2.09.16-.64.32-1.29.32-1.6.33-1.46.49-2.74.49-4.19a19.22 19.22 0 0 0-1.06-5.55c-.04-.08-.08-.16-.08-.24a.56.56 0 0 0-.08-.24.56.56 0 0 1-.08-.24c.08 0 .12.04.16.08.04.04.08.08.17.08a4.4 4.4 0 0 1 1.46 1.93c.65 1.6.97 3.22.8 4.99 0 .96-.15 1.92-.64 2.89Zm-10.88-3.86c0 2.09.16 4.18 1.14 6.27a6.9 6.9 0 0 1-1.46-1.77c-.5-.96-.65-2.09-.82-3.21a9.64 9.64 0 0 1 0-3.06c.33-1.44.82-2.9 1.95-4.02l.33-.32c0-.16.16-.16.16-.16a14.49 14.49 0 0 0-1.3 6.27Zm-138.01-8.04c.16-.16.32-.16.49-.16h6c.33 0 .5.16.5.48v.65c0 .16 0 .16-.33.16h-.65c-.16 0-.33.16-.33.32v13.18c0 .16.17.32.33.32h.65c.32 0 .32.16.32.32v.65c0 .32-.16.48-.49.48h-6c-.17 0-.33 0-.49-.16v-.8c.16-.17.32-.17.65-.17h.32c.5 0 .65 0 .65-.64v-13.02c-.16-.32-.32-.48-.65-.48h-.48c-.17.16-.33 0-.49-.16v-.97Zm2.92 15.11h1.3v-13.82h-1.3v13.82Zm61.21 15.44v.16h.33c.16-.16.16-.16.16-.32v-6.11c0-.16 0-.24-.04-.28-.04-.04-.12-.04-.28-.04h-.65c-.17 0-.25 0-.29.04-.04.04-.04.12-.04.28v3.7l-.16-.17-.39-.43a80.93 80.93 0 0 0-3.34-3.58c-.17-.17-.33-.17-.5-.17-.15 0-.15.17-.15.33v6.1c0 .33.16.33.32.33h.65c.33 0 .33 0 .33-.32v-3.86a89.6 89.6 0 0 1 4.05 4.34Zm44 0c-.32-.48-.64-.8-1.13-1.29a43.89 43.89 0 0 1-2.4-2.63l-.25-.3-.11-.12s0-.16-.16-.16v4.02c0 .16 0 .24-.04.28-.04.04-.13.04-.29.04h-.65c-.16 0-.32 0-.32-.32v-6.12c0-.15 0-.32.16-.32s.32 0 .49.17c.65.64 1.25 1.28 1.86 1.92.61.65 1.22 1.3 1.87 1.93l.16.16v-3.85c0-.33 0-.33.33-.33h.65c.16 0 .32 0 .32.33v6.43h-.48v.16Zm-63.89-.08c.09.04.17.08.25.08v-.16h.65c.32 0 .65-.16.97-.32.81-.65 1.3-1.45 1.3-2.42v-3.69c0-.16 0-.24-.04-.28-.04-.05-.12-.05-.28-.05h-.65c-.17 0-.25 0-.29.05-.04.04-.04.12-.04.28v3.85c0 .65-.32 1.13-.81 1.3-.49.15-1.14.15-1.46-.33a2.3 2.3 0 0 1-.33-1.13v-3.7c0-.15 0-.23-.04-.27-.04-.05-.12-.05-.28-.05h-.65c-.32 0-.32.17-.32.33v3.85c0 1.13.8 2.26 1.78 2.58.08 0 .16.04.24.08Zm7.55.08c-.16 0-.28-.04-.4-.08s-.24-.08-.4-.08a3.55 3.55 0 0 1-2.28-3.7 3.43 3.43 0 0 1 2.92-2.9c.98-.16 1.95.17 2.76.8.16.17.16.33 0 .5l-.48.47c-.17.16-.33.16-.5 0a2.3 2.3 0 0 0-2.26-.32c-.98.48-1.3 1.61-1.14 2.57a2.3 2.3 0 0 0 2.27 1.61c.49 0 .81-.16 1.14-.48.16-.16.32-.16.49 0l.48.48c.08.08.12.12.12.16 0 .04-.04.08-.12.16a3.1 3.1 0 0 1-1.62.8h-.98Zm-14.04-.16c.2.04.4.08.57.16v.16h1.3a3.1 3.1 0 0 0 1.62-.8c.16-.17.16-.33 0-.49l-.49-.48c-.16-.16-.32-.16-.48 0-.5.48-.98.64-1.63.48-.8-.16-1.62-.8-1.78-1.6-.17-.97.16-1.93.8-2.42a2.22 2.22 0 0 1 2.6.16c.17.16.17.16.33 0l.49-.48c.1-.19.13-.26.12-.33-.01-.04-.05-.08-.12-.15a3.52 3.52 0 0 0-2.76-.8c-1.46.16-2.6 1.44-2.92 2.89a3.23 3.23 0 0 0 1.78 3.54c.16.08.37.12.57.16Zm10.63-18h-4.22c-.16 0-.16 0-.16.15l-.24 1.13-.25 1.12c0 .32 0 .48.33.48h.65c.32 0 .32.17.32.49v.64c0 .16-.16.32-.32.32h-3.57c-.17 0-.33-.16-.33-.32v-.8c0-.16.16-.33.33-.33h.65c.48 0 .48 0 .48-.48.17-.8.37-1.65.57-2.49a601.37 601.37 0 0 1 1.54-6.5v-.01l.98-4.02c0-.32 0-.48-.33-.48-.48 0-.48-.16-.48-.64v-.33c0-.32.16-.48.48-.48h4.87c.33 0 .5.16.5.32l.37 1.65c.68 2.95 1.35 5.82 1.9 8.8.32 1.45.64 2.9.97 4.18 0 .32.16.32.49.32h.48c.33 0 .33.16.33.49v.64c0 .32-.17.48-.33.48h-6.17c-.32 0-.48 0-.48-.48v-.64c0-.33.16-.33.32-.33h.65c.32 0 .32-.16.32-.32-.09-.54-.23-1.03-.37-1.5-.1-.37-.2-.72-.28-1.07Zm-.8-11.1c.97 4.66 1.94 9.32 2.92 13.82h1.46c-.55-2.62-1.15-5.25-1.75-7.85-.46-2.01-.91-4-1.34-5.97h-1.3Zm-1.14 1.77c-.65 2.57-1.3 5.3-1.95 8.04h3.73c-.65-2.74-1.3-5.47-1.78-8.04Zm-11.7 8.52v-.32a6.1 6.1 0 0 0 1.95-.33 5.06 5.06 0 0 0 2.93-1.44 5.2 5.2 0 0 0 1.62-3.86c0-2.25-.97-4.02-3.08-4.98a9.71 9.71 0 0 0-3.74-.8h-5.03c-.16 0-.33.15-.33.31v.65c0 .23.09.3.2.37l.13.1h.65c.32 0 .48.17.48.5v12.69c0 .32-.16.48-.48.48h-.49c-.16 0-.32.16-.32.49v.64c0 .16 0 .32.32.32h6.33c.17 0 .33-.16.33-.32v-.64c0-.17 0-.33-.33-.33h-.65c-.32 0-.48-.16-.48-.48v-3.05Zm0-1.61v-8.68c.66 0 1.14 0 1.63.32 1.14.32 1.95.8 2.76 1.6.65.81.81 1.78.81 2.74 0 .48-.16 1.13-.32 1.6-.33.81-.81 1.3-1.63 1.78a7.3 7.3 0 0 1-3.24.64Zm-2.75-8.68h1.3v13.82h-1.3v-13.82Zm85.24 8.04c0 .48.04 1 .08 1.52.04.53.08 1.05.08 1.53s.16 1.13.49 1.6a2.9 2.9 0 0 0 1.95 1.46c.97.16 1.78 0 2.6-.49.48-.32.8-.8 1.13-1.28.16-.32.16-.65-.16-.8 0 0-.17-.17-.33-.17-.8-.32-1.13-1.12-.97-1.93.16-.8.97-1.28 1.79-1.28.8 0 1.46.64 1.62 1.44.16.65 0 1.45-.16 2.1a5.54 5.54 0 0 1-1.3 2.57 4.44 4.44 0 0 1-2.6 1.28 7.56 7.56 0 0 1-5.2-1.44 8.24 8.24 0 0 1-2.43-3.7c-.81-2.73-.81-5.3.32-7.88a6.68 6.68 0 0 1 4.55-4.02 7.5 7.5 0 0 1 4.22.32c.33.16.49.16.65-.16l.33-.32c.16-.16.32 0 .48.16.16.97.33 1.93.65 2.9 0 .16 0 .32-.32.48-.08 0-.2.04-.33.08-.12.04-.24.08-.32.08-.16 0-.33 0-.49-.16 0-.2-.06-.32-.1-.43-.03-.08-.06-.15-.06-.22-.49-1.12-1.46-1.6-2.6-1.6-.97 0-1.62.48-2.11 1.12-.65.8-.81 1.77-.97 2.74-.09.48-.13.96-.17 1.44-.04.48-.08.97-.16 1.45 0 .64 0 1.12-.16 1.6Zm-.16-7.56-.17.16a7.3 7.3 0 0 0-2.1 4.66 9.48 9.48 0 0 0 .16 3.7c0 1.13.32 2.1.97 3.06.08.16.16.28.24.4l.25.4c-.98-4.18-.82-8.36.65-12.38Zm-19.33 4.82h-.97l-.16-4.98c0-.16.16-.32.32-.32h3.74c.32 0 .48.16.48.48v.48c0 .32.17.49.5.49h.64c.32 0 .49-.17.49-.49v-1.93c0-.32-.17-.48-.49-.48h-10.55c-.33 0-.5 0-.5.32v.65c0 .16.17.32.33.32h.5c.48 0 .48.16.48.48v13.5c0 .16-.16.33-.33.33h-.48c-.33 0-.5.16-.5.48v.64c0 .16 0 .32.33.32h6.34c.16 0 .32-.16.32-.48v-.64c0-.32-.16-.49-.49-.49h-.65c-.32 0-.48-.16-.48-.48v-6.75h2.76c.32 0 .48-.16.48-.48v-.48c0-.33-.16-.49-.48-.49h-1.63Zm-3.73-5.3h1.3v13.82h-1.3v-13.82Zm-17.54-.16v13.34c0 .48.17.48.5.48h.48c.32 0 .49.16.49.49v.48c0 .32-.17.48-.5.48h-6.16c-.33 0-.49-.16-.49-.48v-.48c0-.33.16-.49.49-.49h.65c.32 0 .32-.16.32-.32v-13.34h-2.27c-.33 0-.49.16-.49.48v.48c0 .32-.16.32-.32.32h-.65c-.33 0-.49-.16-.49-.48v-2.09c0-.32.16-.48.49-.48h12.01c.33 0 .49.16.49.48v1.93c0 .32-.16.48-.49.48h-.65c-.32 0-.48-.16-.48-.48v-.64c0-.16-.17-.32-.33-.32-.81.16-1.62.16-2.6.16Zm-2.76 13.98h1.3v-13.82h-1.3v13.82Zm-63.48-13.34v6.43h-.16v6.43c0 .32-.17.48-.49.48h-.49a.35.35 0 0 1-.12.1c-.12.09-.2.15-.2.39v.48c0 .32.16.48.48.48h10.56c.16 0 .32 0 .32-.32v-2.09a.34.34 0 0 0-.32-.32h-.65c-.16 0-.33.16-.33.32v.64c0 .32-.16.48-.48.48h-3.41c-.33 0-.49-.16-.49-.48v-13.18c0-.32.16-.48.49-.48h.48c.33 0 .33 0 .5-.16v-.65c0-.32-.17-.48-.5-.48h-6.32c-.17 0-.33.16-.33.32v.65c0 .32.16.32.32.32h.65c.33 0 .49.16.49.64Zm2.76 13.34h-1.3v-13.82h1.3v13.82Zm75.17-6.9v6.58c0 .32.17.48.5.48h.48c.32 0 .32.17.32.33v.64c0 .32-.16.32-.32.32h-6.33c-.33 0-.33-.16-.33-.32v-.64c0-.33.16-.49.49-.49h.49c.32 0 .48-.16.48-.48v-13.02c0-.32-.16-.48-.48-.48h-.65c-.33 0-.5-.16-.5-.32v-.65c0-.16.17-.32.33-.32h6.34c.16 0 .32.16.32.32v.8c.33.17.16.17-.16.17h-.65c-.33 0-.33.16-.33.32v6.75Zm-1.46-6.92h-1.3v13.82h1.3v-13.82Zm23.38 13.34v-13.02c0-.32 0-.48.5-.48h.48c.32 0 .48 0 .48-.16v-.8c0-.17-.16-.33-.32-.33h-6.33c-.16 0-.33.16-.33.32v.65c0 .16.17.32.33.32h.65c.32 0 .48.16.48.48v13.02c0 .32-.16.48-.48.48h-.65c-.33 0-.49.16-.49.49v.48c0 .32.16.48.49.48h6.33c.16 0 .33-.16.33-.32v-.8c0-.17-.17-.33-.33-.33h-.65c-.32 0-.49 0-.49-.48Zm-2.76-13.34h1.3v13.82h-1.3v-13.82Zm25.82 6.91v6.43c0 .24 0 .36.06.42s.18.06.43.06h.65c.16 0 .32.16.32.33v.8c0 .16-.16.32-.32.32h-6.34c-.32 0-.48-.16-.48-.48v-.48c0-.33.16-.49.32-.49h.65c.33 0 .49-.16.49-.48v-13.02c0-.32-.16-.48-.33-.48h-.65a.34.34 0 0 1-.32-.32v-.65c0-.16.16-.32.32-.32h6.34c.16 0 .32.16.32.32v.8c-.16.17-.32.17-.49.17h-.65c-.32 0-.32.16-.32.48v6.6Zm-2.76 6.91h1.3v-13.82h-1.3v13.82Zm-129.24 11.1v1.28h28.09v-.96c0-.32 0-.32-.33-.32h-27.76Zm148.72.16h-28.09v1.12h28.1v-1.12Zm-49.36 3.53c.17.33.33.65.82.49v-.16h.65c.16 0 .32 0 .16-.33-.98-1.92-1.95-4.01-2.92-6.1-.09 0-.13-.04-.17-.09-.04-.04-.08-.08-.16-.08-.16 0-.32 0-.32.17a54.95 54.95 0 0 1-1.47 3.05c-.24.56-.48 1.09-.73 1.6l-.73 1.62c-.16.16-.16.32.17.32h.65c.16 0 .32 0 .32-.16 0-.24.09-.39.2-.58l.12-.23c.1-.09.14-.13.19-.15h2.25c.49 0 .65 0 .81.47.16 0 .16.16.16.16Zm-2.27-2.8a26 26 0 0 1 .49-1.05c.32.64.65 1.28.97 2.09h-1.95c.17-.33.33-.69.5-1.05Zm16.89 3.29c-.49.16-.65-.16-.81-.49 0-.16-.17-.48-.33-.64-.1-.1-.28-.07-.47-.04-.11.02-.23.04-.34.04h-1.95c-.08 0-.12 0-.14.02-.02.02-.02.06-.02.14l-.13.23c-.11.2-.2.34-.2.58 0 .16-.16.32-.32.32h-.65c-.33 0-.33-.16-.16-.32.32-.8.65-1.45 1.13-2.25.33-.65.61-1.3.9-1.93.28-.65.56-1.29.89-1.93 0-.1.06-.14.15-.2a.9.9 0 0 0 .17-.12c.08 0 .13.04.17.08.04.04.08.08.16.08a220.4 220.4 0 0 0 2.92 6.1c.16.33 0 .33-.16.33h-.81Zm-2.6-4.34c-.33.8-.65 1.44-.97 2.09h1.94a25.7 25.7 0 0 0-.97-2.1Zm-42.22 3.85c.17.33.33.65.82.49h.97c.16 0 .33 0 .16-.32-.97-1.93-1.95-4.02-2.92-6.11-.08 0-.12-.04-.16-.08-.04-.04-.08-.08-.16-.08-.17 0-.33 0-.33.16-.24.4-.45.84-.65 1.28-.2.44-.4.89-.65 1.29a62.4 62.4 0 0 1-.81 1.77c-.28.6-.57 1.2-.81 1.77-.16.16-.16.32.16.32h.65c.16 0 .32 0 .32-.16 0-.24.1-.39.2-.58l.13-.23c0-.08 0-.12.02-.14.02-.02.06-.02.14-.02h2.27c.33 0 .5 0 .5.32 0 0 .15.16.15.32Zm-2.27-2.8c.16-.37.33-.73.49-1.05.32.64.65 1.28.97 2.09h-1.95c.17-.33.33-.69.5-1.05Zm16.56 2h-1.3s-.16 0-.16.16a3.5 3.5 0 0 1-.49.8c0 .17-.16.17-.32.17h-.65c-.32 0-.32-.16-.16-.33l.89-1.84c.28-.6.57-1.21.9-1.85.16-.4.36-.8.56-1.2.2-.41.4-.81.57-1.21 0-.17.16-.17.32-.17.09 0 .13.04.17.09.04.04.08.08.16.08.97 2.09 1.95 4.18 2.92 6.1.16.33 0 .33-.16.33h-.65c-.16 0-.32 0-.32-.16a4.25 4.25 0 0 0-.13-.23c-.11-.2-.2-.34-.2-.58 0-.16-.16-.16-.16-.16h-1.79Zm0-3.05a26 26 0 0 0-.48 1.04c-.17.36-.33.72-.5 1.05h1.96c-.33-.8-.65-1.45-.98-2.1Zm-7.14-1.13h.97v5.15c0 .16 0 .24.04.28.04.04.12.04.29.04h.65c.16 0 .24 0 .28-.04.04-.04.04-.12.04-.28v-5.15h1.46c.33 0 .33-.16.33-.32v-.64c0-.08 0-.12-.02-.14-.02-.02-.06-.02-.14-.02h-3.9c-.16 0-.25 0-.29.04-.04.04-.04.12-.04.28v.48c0 .16 0 .24.04.28.04.04.13.04.29.04Zm12.34 4.34h2.27c.16 0 .33 0 .33.32v.65c0 .08 0 .12-.02.14-.02.02-.06.02-.15.02h-3.4c-.07 0-.1 0-.13-.02-.04-.03-.04-.1-.04-.3v-6.27c0-.17 0-.33.16-.33h.65c.33 0 .33 0 .33.33v5.46Zm-14.94-5.3v3.05c0 1.13 0 2.1-.16 3.06 0 .32.16.32.32.32h.81c.33 0 .33-.16.33-.32v-6.11c0-.16 0-.24-.04-.28-.04-.05-.12-.05-.29-.05h-.64c-.17 0-.25 0-.29.05-.04.04-.04.12-.04.28Zm18.67 3.05v-3.05c0-.16 0-.24.04-.28.04-.05.12-.05.29-.05h.48c.17 0 .25 0 .29.05.04.04.04.12.04.28v6.1c0 .17 0 .25-.04.29-.04.04-.12.04-.29.04h-.65c-.16 0-.32 0-.32-.32v-3.06h.16Zm-37.67-3.05v6.11c0 .16 0 .24.04.28.04.04.13.04.29.04h.65c.32 0 .32 0 .32-.32v-6.11c0-.33 0-.33-.32-.33h-.65c-.16 0-.25 0-.29.05-.04.04-.04.12-.04.28Z" fill="#313030"/></svg>