<svg viewBox="0 0 109 75" fill="none" xmlns="http://www.w3.org/2000/svg"><path fill-rule="evenodd" clip-rule="evenodd" d="M57.99 0c.17 0 .34 0 .5.17.69.17 1.2.5 1.37 1.35v5.42c0 1.53 0 3.22-.17 4.74v.17c0 .34.17.5.5.5h.18c0 .35 0 .86-.51 1.02-.34.17-.85.17-1.2.17-.33-.17-.5-.33-.5-.67l-.04-.2c-.04-.16-.08-.36.04-.48v-3.72l-.23-.02c-.42-.04-1.24-.12-1.64.02v4.9c-.51.17-.85.17-1.36.17-.17 0-.34-.17-.34-.33v-1.02c0-2.2 0-4.57.17-6.77v-3.22c0-1.01.5-1.7 1.53-2.03.17 0 .34 0 .5-.17h1.2Zm-1.53 6.94h1.87v-4.57c0-.5-.17-.68-.68-.85h-.51a.73.73 0 0 0-.68.68v4.74Z" fill="#313030"/><path d="M0 17.27c0 .08.04.13.09.17.04.04.08.08.08.17l3.06 3.04c2.97 2.88 5.98 5.8 9 8.7l.01.02 9.02 8.72c.17 0 .17 0 .34.17l-21.26 21.16 1.19 1.19 20.92-21.33c2.04 1.86 3.9 3.72 5.78 5.58l.85-.84-5.78-5.76a171.4 171.4 0 0 0 3.01-3.09c.94-.97 1.85-1.92 2.77-2.83l-.85-.85c-.62.61-1.24 1.25-1.86 1.89a94.62 94.62 0 0 1-3.92 3.87l-21.26-21.17-1.19 1.19Z" fill="#313030"/><path fill-rule="evenodd" clip-rule="evenodd" d="M109 43v-.17h-1.02v-1.69a8.3 8.3 0 0 0-1.02-2.88c-.34-.5-.68-1.01-1.2-1.52 0 0-.16 0-.16-.17.1 0 .14-.07.2-.16a8.95 8.95 0 0 0 2.01-3.74c.17-.16.17-.5.17-.67v-1.7a4.94 4.94 0 0 0-1.2-2.7c-1.18-1.19-2.88-2.04-4.75-1.36h-.17c0-.08.04-.13.08-.17a24.98 24.98 0 0 1 .45-.86c.28-.52.6-1.1.83-1.68.17-.34.34-.84.34-1.35.17-1.36-.34-2.88-1.7-3.56-.51-.34-1.36-.5-2.04-.34a4.2 4.2 0 0 0-2.72 2.37c-.17.17-.17.51-.17.68 0 .51.34 1.02.85 1.19.5.17 1.02 0 1.36-.34.17 0 .34-.17.34-.34.5-.85 0-1.7-1.02-1.7h-.34c0-.16 0-.16.17-.33a3.47 3.47 0 0 1 2.55-1.02c1.02.17 1.7.85 1.87 1.7.11.22.07.45.04.67-.02.12-.04.23-.04.34a7.46 7.46 0 0 1-1.02 2.71c-.26.5-.55 1.06-.85 1.6-.3.56-.6 1.1-.85 1.62a8.3 8.3 0 0 0-.26.59l-.25.6a8.37 8.37 0 0 0-.34 2.02c0 1.19.85 2.37 1.87 2.71l.08.03.1.04c.42.14.73.25 1.18.1 1.36-.34 2.55-1.52 2.72-2.88 0-.67-.17-1.18-.51-1.52-.68-.5-1.53-.5-2.04.17-.34.5-.34 1.01 0 1.52.5.51 1.02.68 1.53.34.08 0 .13-.04.17-.08.04-.05.08-.09.17-.09-.17.17-.17.34-.17.51a2.21 2.21 0 0 1-1.87 1.52c-1.36.17-2.21-.84-2.04-2.03.08-.25.17-.46.25-.68.09-.2.17-.42.26-.67.1-.22.23-.45.36-.7.28-.52.6-1.1.83-1.67 0 0 0-.17.17-.17l.3-.1c.36-.13.66-.24 1.06-.24 1.02 0 1.87.34 2.55 1.02.5.5.85 1.01 1.02 1.69.32.8.19 1.44.03 2.22l-.03.15a9.4 9.4 0 0 1-2.38 3.72h-.17c-.09 0-.13-.04-.17-.08-.04-.04-.09-.09-.17-.09a8.28 8.28 0 0 0-3.57-1.35 4.96 4.96 0 0 0-5.1 2.2l-.17.16c-.14.13-.2.2-.22.27 0 .08.07.17.22.37l.17.22a5.58 5.58 0 0 0 5.6 2.2 7.76 7.76 0 0 0 3.24-1.36c.17 0 .34-.17.34-.17h.17a9.03 9.03 0 0 1 2.21 3.39c.17.85.34 1.7.17 2.54-.34 1.86-2.72 3.55-4.93 2.54-.07-.07-.13-.1-.19-.14-.09-.06-.15-.1-.15-.2a9.66 9.66 0 0 1-.94-1.68l-.25-.52-.51-1.52c-.17-1.02.5-2.04 1.7-1.87 1.02 0 1.87.51 2.2 1.53v.34c-.08 0-.12-.05-.16-.09a.23.23 0 0 0-.17-.08c-.12 0-.22-.03-.31-.05-.17-.03-.32-.06-.54.05-.51.17-.85.5-.85 1.01 0 .68.34 1.02.85 1.36.5.17 1.02.17 1.36-.17.68-.51.85-1.02.68-1.7a3.84 3.84 0 0 0-2.38-2.7 2.4 2.4 0 0 0-2.38.33c-1.02.68-1.36 1.7-1.2 2.88a12.2 12.2 0 0 0 1.28 2.96 44.51 44.51 0 0 1 1.95 3.64c.3.57.46 1.26.6 1.86l.09.35c.17 1.18-.34 2.2-1.53 2.37-1.02.33-2.04-.17-2.72-1.02 0 0-.17-.17-.17-.34h.34c.68 0 1.36-.34 1.36-1.18 0-.68-.34-1.19-1.02-1.36-.34 0-.51 0-.85.17-.34.34-.68.85-.51 1.36 0 .33 0 .5.17.67a5.16 5.16 0 0 0 2.2 2.03c.52.34 1.2.34 1.88.17a3.66 3.66 0 0 0 2.55-3.04 3.2 3.2 0 0 0-.34-2.2 13.3 13.3 0 0 0-.6-1.27 16.88 16.88 0 0 1-.68-1.44c-.04-.05-.08-.09-.08-.17.17.17.17.17.34.17.68.33 1.36.33 2.04.17a4.54 4.54 0 0 0 3.57-4.07Zm-11.05-6.26c1.53 1.18 4.08 1.01 5.6 0a4.87 4.87 0 0 0-5.6 0Z" fill="#313030"/><path d="M56.72 74.38c.1.26.2.49.59.62h.85c0-.17.17-.17.17-.17.34-.17.5-.34.5-.85h-.16a4.54 4.54 0 0 0-.17-.08c-.23-.1-.34-.15-.34-.42v-1.53c.17-2.2.17-4.4.17-6.6v-.68c-.17-.5-.51-.84-1.02-1.01-.68-.17-1.36 0-1.87.34l-.17.16c-.51-.67-1.03-.84-1.54-.5a.93.93 0 0 0-.5.84h.16l.17.08c.23.1.34.15.34.43v.17c-.17 2.37-.17 4.57-.17 6.94v2.37c0 .34 0 .34.34.34h1.03v-2.03c.17-2.37.17-4.91.17-7.28 0-.34 0-.5.34-.68.17-.17.17-.17.34-.17.5-.17.85.17.85.68v1.7c-.17 2.2-.17 4.4-.17 6.6v.5l.1.23Zm-24.42-34.59h6.47v8.3h8.67a13 13 0 0 0 3.57-.52c.68-.17 1.2-.5 1.7-1.01a4.3 4.3 0 0 0 1.53-3.9c0-.67-.17-1.18-.34-1.69a5.18 5.18 0 0 0-3.23-2.7c-.17 0-.34 0-.5-.18.16 0 .16 0 .16-.17a3.97 3.97 0 0 0 3.06-3.72 4.37 4.37 0 0 0-2.04-4.23c-.5-.34-1.02-.51-1.53-.68l-.36-.07a9.1 9.1 0 0 0-2.02-.27h-8.67v7.79h-6.46v-11c0-1.2.85-2.04 2.04-2.2h24.15c.85.16 1.53 1 1.53 2.02v23.88a1.99 1.99 0 0 1-1.87 1.52h-24.15c-1.02-.17-1.53-1.02-1.7-2.03v-9.14Z" fill="#313030"/><path fill-rule="evenodd" clip-rule="evenodd" d="M77.37 30.64a10.98 10.98 0 0 0-5.95-1.69c-1.36 0-2.55.17-3.74.85a9.35 9.35 0 0 0-6.12 11.17c.68 3.05 2.55 5.08 5.27 6.43a10.45 10.45 0 0 0 6.8.68c2.04-.5 3.74-1.35 5.1-2.7a9.28 9.28 0 0 0 2.72-7.96 9.27 9.27 0 0 0-4.08-6.78Zm-5.95 1.19a6.8 6.8 0 0 1 6.8 6.77 6.74 6.74 0 0 1-6.97 6.77 6.8 6.8 0 0 1-6.8-6.77c0-3.9 3.23-6.77 6.97-6.77Z" fill="#313030"/><path d="M67.17 14.05c-.51 0-1.02 0-1.36-.17-.17 0-.34-.17-.17-.34 0-.33 0-.67.17-.84.17-.93.3-1.82.42-2.71.13-.89.26-1.78.43-2.71l.5-4.06v-.51c0-.34-.16-.5-.5-.68-.51-.17-.85 0-1.2.34 0 0-.16.17-.16.34-.17.85-.34 1.86-.34 2.7-.1.84-.24 1.67-.38 2.48-.11.67-.23 1.32-.3 1.93a20.7 20.7 0 0 0-.34 3.22v.5c-.51 0-1.02 0-1.36-.17-.17 0-.17-.16-.17-.33 0-.34 0-.51.17-.85a620.37 620.37 0 0 0 1.02-6.77l.5-3.05v-.17c0-.5 0-.5-.5-.68h-.17c0-.5.17-.84.68-.84.22-.12.45-.08.68-.04.11.02.22.04.34.04.17 0 .34.17.5.34 0 .08.05.12.1.17.04.04.08.08.08.16.5-.33 1.19-.5 1.7-.33.68.17 1.19.33 1.53 1.01.08 0 .13-.04.17-.08.04-.05.08-.09.17-.09.68-.34 1.53-.5 2.21-.17.68.34 1.02.85 1.02 1.53 0 .5 0 1.01-.17 1.52-.08.76-.21 1.52-.34 2.29-.13.76-.26 1.52-.34 2.28l-.25 1.95c-.09.63-.18 1.27-.26 1.95v.33c0 .17.17.34.34.51h.17c0 .34-.17.85-.68.85-.34.17-.68.17-1.2 0a.93.93 0 0 1-.5-.85v-.84l.5-3.73h.01l.51-3.72c.08-.34.13-.68.17-1.02.04-.34.08-.68.17-1.02a.93.93 0 0 0-.51-.84c-.34-.17-.68 0-1.02.17l-.34.34-.51 3.04c-.1.84-.24 1.67-.38 2.48-.11.66-.22 1.31-.3 1.93a18.67 18.67 0 0 0-.34 3.21h-.17Zm-14.46-.34c.34-.17.68-.67.51-1.18-.17-.17-.17-.17-.34 0l-.17-.08c-.22-.1-.34-.15-.34-.43v-.17l-.25-2.45-.26-2.46-.5-4.06c0-.34 0-.68-.18-1.02-.17-.5-.68-.84-1.19-1.01-.68-.17-1.36 0-2.04.5l-.34.34-.17-.17c-.17-.17-.34-.33-.5-.33-.35 0-.69 0-1.03.16-.34.17-.5.51-.34 1.02h.17c.34 0 .51.17.51.5v.18c0 .25.05.55.09.84.04.3.08.6.08.85 0 1.19.17 2.37.34 3.56a299.36 299.36 0 0 1 .51 4.23c0 .25.05.46.09.68.04.2.08.42.08.67.1.18.13.26.2.3.07.04.15.04.31.04.17 0 .3-.04.43-.08.13-.05.25-.09.42-.09a.6.6 0 0 0 .26-.08.6.6 0 0 1 .25-.09v-.17c-.08-.34-.12-.72-.17-1.1a8.53 8.53 0 0 0-.17-1.1c0-1.18-.17-2.37-.34-3.55-.08-.51-.12-1.02-.17-1.53-.04-.5-.08-1.01-.17-1.52 0-.25-.04-.55-.08-.85-.04-.3-.09-.59-.09-.84v-.34c.17-.17.34-.34.68-.51.51-.17 1.02 0 1.02.68.09.5.13 1.06.17 1.6.05.56.09 1.1.17 1.61.08.87.2 1.78.32 2.7.13 1.06.27 2.14.36 3.23 0 .34 0 .68.17 1.02.17.5.51.67 1.02.67.2 0 .34-.06.46-.1a.51.51 0 0 1 .22-.07Zm-10.54 31.49v-5.41h5.1c.68 0 1.36 0 1.87.33.34.17.68.34.85.51 1.36.85 1.2 2.88.17 3.73-.5.34-1.02.67-1.7.67-.17 0-.38.05-.6.09-.2.04-.42.08-.59.08h-5.1Zm-23.97-34.7c-.35.34-.52.84-.18 1.35.69-.17.86-.17 1.37.17 0 0 .17.17.17.34a39.59 39.59 0 0 0 5.6 8.3l.52.5c.17.17.5.17.85 0 .17-.17.5-.34.85-.5.17-.17.34-.34.34-.68v-.51c0-.5-.17-1.02-.34-1.52a60.88 60.88 0 0 0-2.72-7.11c-.34-.85-.68-1.7-1.2-2.54-.16-.34-.33-.34-.67-.17-.17.08-.3.17-.43.25-.13.09-.25.17-.42.25-.09 0-.13.05-.17.09-.05.04-.09.08-.17.08.68.85 1.19 1.7 1.53 2.54a64.15 64.15 0 0 1 3.06 7.96v.34c-.17 0-.34-.17-.34-.17-.68-.85-1.36-1.7-2.04-2.7a40.5 40.5 0 0 1-3.57-5.77c-.09-.08-.17-.2-.26-.33a2.35 2.35 0 0 0-.25-.34c-.34-.34-.68-.34-1.02-.17-.18 0-.35.17-.52.34Zm67.67-1.02c.17-.38.34-.76.51-1.18 0-.17 0-.17.17-.34.14-.28.05-.45-.08-.68l-.09-.17c-.17-.17-.34-.34-.68-.34-.5 0-.68 0-.85.51-.34.68-.68 1.52-.85 2.2-.17.34-.17.85.17 1.19.26.33.47.63.68.93l.68.93c.51.68.51 1.35.17 2.03l-1.02 2.54c-.34 1.02-1.19 1.35-2.38 1.35-.68-.17-1.36-.33-1.87-.84-.34-.34-.68-.68-.68-1.02a1.08 1.08 0 0 1 0-1.01c.17-.43.34-.8.51-1.19.17-.38.34-.76.51-1.18.17-.34.34-.34.51-.34.51 0 .85.17 1.2.34l-.52 1.18c-.17.38-.34.76-.5 1.19-.18.33-.18.67 0 1.01.33.34.67.5 1.18.34.17 0 .51-.17.51-.5.34-.69.68-1.53.85-2.2.17-.52.17-.86-.17-1.2-.19-.25-.36-.5-.52-.75-.27-.4-.52-.79-.84-1.1-.34-.51-.5-1.2-.17-1.7.22-.65.5-1.3.78-1.9.15-.35.3-.67.41-.98.34-.84 1.2-1.18 2.04-1.18.85 0 1.53.34 2.04.84.17.17.34.34.51.68.34.5.34.85.17 1.36l-.5 1.18c-.18.38-.35.76-.52 1.19-.17.17-.34.33-.5.33-.52 0-1.03 0-1.37-.33.17-.43.34-.8.51-1.19Zm-49.82 1.36-.51-1.02a7.3 7.3 0 0 1-.6.25c-.2.09-.42.17-.59.26-.51.17-.85 0-1.02-.51v-.17l-1.02-3.05c-.17-.17-.17-.17-.17-.34 0-.33 0-.67.34-.84 0 0 .17-.17.34-.17.5-.17.85 0 1.02.5l.5 1.53c.18 0 .18.17.18.34.51 0 .85-.17 1.19-.5.17-.18.17-.35.17-.52l-.51-1.52c-.17-.68-.68-1.02-1.36-1.19-1.02-.17-1.87.17-2.72.85-.51.34-.68.68-.68 1.19 0 .33 0 .67.17 1.01l1.02 3.05c.17.5.34 1.01 1.02 1.35a1.65 1.65 0 0 0-.17 1.53c.17.42.34.89.5 1.35l.52 1.36c0 .08.04.12.08.16.05.05.09.09.09.17a1.87 1.87 0 0 0 1.7 1.02c.85 0 1.53-.17 2.21-.68.34-.17.51-.34.68-.67l.07-.2c.14-.4.25-.72.1-1.16 0-.34-.17-.85-.34-1.18-.17-.17-.34-.34-.51-.34a3.2 3.2 0 0 0-1.36.34c.17.17.17.17.17.33 0 .51.17.85.34 1.19.17.34 0 .68-.34.85-.09 0-.17.04-.26.08-.08.04-.17.09-.25.09-.51.16-.85 0-1.02-.51-.17-.43-.3-.85-.43-1.27a14.8 14.8 0 0 0-.42-1.27c-.17-.51 0-.85.51-1.02h.17c.17-.08.34-.12.51-.17.17-.04.34-.08.51-.17.17 0 .17-.17.17-.33Zm40.81 2.03c.51 0 1.02.17 1.36.5.17.17.17.34.17.51-.08.26-.13.47-.17.68-.04.21-.08.42-.17.68-.17.67-.85 1.01-1.53 1.18-.85.17-1.7-.17-2.38-.68a2.2 2.2 0 0 1-.85-2.2c.17-.5.3-.97.43-1.44.12-.46.25-.93.42-1.43.17-.51.34-.68.85-1.19 0 0 0-.17-.17-.17a1.44 1.44 0 0 1 0-1.18c.34-1.2.68-2.37 1.02-3.39.34-1.02 1.02-1.52 2.04-1.52.68 0 1.36.17 2.04.67.51.34.85.68.85 1.36v.68l-.5 1.52-.09.17c-.1.22-.15.34-.43.34-.34 0-.85 0-1.19-.34v-.17c.17-.5.34-1.02.51-1.7.17-.5 0-.67-.5-.84h-.35c-.5-.17-.85.17-1.02.5-.08.43-.21.81-.34 1.2-.13.37-.25.75-.34 1.18-.08.17-.13.34-.17.5-.04.18-.08.34-.17.51-.17.51 0 .85.51 1.02.09 0 .21.04.34.08.13.05.26.09.34.09.17 0 .51 0 .68.17 0 .34 0 .84-.17 1.18 0 .17-.17.17-.34.17-.17-.08-.34-.12-.5-.17a1.98 1.98 0 0 1-.52-.17h-.34c-.5 0-.68.17-.85.51l-.5 1.53c-.1.16-.14.33-.18.5-.04.17-.08.34-.17.51-.17.5 0 .85.51 1.02.09 0 .17.04.26.08a.6.6 0 0 0 .25.09c.34 0 .68-.17.68-.51.09-.17.13-.34.17-.51.04-.17.09-.34.17-.5l.07-.37c.1-.53.13-.65.27-.65Zm12.24.17c-.34.5-.5 1.01-.34 1.69-.5.17-.85.34-.68.85-.5.84-1.02 1.69-1.53 2.7a1.8 1.8 0 0 0 .17 2.04c0 .17.17.33.34.5.34.34.85.51 1.36.68.34.17.68.17 1.02.17.51 0 .86-.17 1.2-.68.08-.17.2-.38.34-.59.12-.21.25-.42.34-.6.17-.16.17-.33 0-.5a2 2 0 0 0-1.2-.85c0 .09-.04.13-.08.17-.04.05-.09.09-.09.17l-.5 1.02c0 .17-.18.34-.35.34-.34.17-.85 0-1.19-.34a1.08 1.08 0 0 1 0-1.02c.17-.67.51-1.18.85-1.7.09-.08.13-.2.17-.33.05-.13.09-.25.17-.34.17-.34.68-.5 1.02-.34.09 0 .13.05.17.09.05.04.09.08.17.08.18.09.3.17.43.26.13.08.26.17.43.25.17.17.17.17.34 0 .34-.34.5-.85.5-1.18-.08-.09-.2-.13-.33-.17a.85.85 0 0 1-.34-.17c-.13-.07-.24-.1-.33-.14-.14-.06-.25-.1-.35-.2-.52-.17-.52-.51-.34-1.02.25-.5.55-1.01.85-1.52.3-.5.59-1.02.85-1.52.34-.34.68-.51 1.02-.34.17 0 .34 0 .5.17l.1.16c.13.24.22.4.08.68 0 .09-.05.13-.09.17a.23.23 0 0 0-.08.17c-.17.26-.3.5-.43.76s-.25.51-.42.76c.34.34.68.51 1.19.51.17 0 .34-.17.5-.34.18-.25.3-.5.43-.76.13-.25.26-.5.43-.76.17-.5.17-1.02 0-1.52a2.34 2.34 0 0 1-.26-.34 2.35 2.35 0 0 0-.25-.34 5.33 5.33 0 0 0-1.7-.85c-.51-.17-.85-.17-1.2 0-.5.17-.84.51-1.18 1.02a23.82 23.82 0 0 0-1.7 3.05Zm-46.93 23.86v-5.07h4.93c.51 0 1.2 0 1.7.17a2 2 0 0 1 1.53 1.52c.34 1.02.17 2.37-1.36 3.05a4.9 4.9 0 0 1-1.53.34h-5.27Z" fill="#313030"/><path fill-rule="evenodd" clip-rule="evenodd" d="M38.6 60.6c-.34 0-.68.18-.85.69.43.14.5.28.61.53l.07.14c-.17.17-.17.17-.17.34-.42 1.44-.9 2.88-1.36 4.32-.47 1.44-.94 2.88-1.36 4.32-.17 0-.17.17-.17.34.17.16.17.16.34.16l.94.26c.3.08.59.17.93.25.09 0 .21.04.34.09.13.04.26.08.34.08 1.02.17 1.7-.34 2.04-1.35l.26-.93.25-.93c.17-.51.17-1.02-.17-1.53.51-.17.68-.68.85-1.18l.26-.93c.08-.3.17-.6.25-.94.08-.22.12-.4.16-.58.04-.22.09-.41.18-.6.17-.5.17-1.02-.34-1.36-.5-.5-1.02-.67-1.7-.5a.6.6 0 0 0-.25.08c-.09.04-.17.09-.26.09-.17-.68-.68-.85-1.19-.85Zm.17 5.6c-.17-.05-.34-.09-.5-.17.16 0 .16-.17 0-.34l1.01-3.05c0-.17.17-.34.34-.34.12 0 .22-.02.31-.04.17-.03.32-.07.54.04.34.17.34.34.34.68v.17c-.17.42-.3.89-.42 1.35-.13.47-.26.93-.43 1.36 0 .08-.04.12-.08.17-.05.04-.09.08-.09.17-.17.17-.34.17-.5.17a2.4 2.4 0 0 0-.52-.17Zm-1.44 4.55a2.37 2.37 0 0 1-.43-.15c.34-1.19.68-2.2 1.02-3.22.34 0 .68.17 1.02.34.34 0 .51.34.34.68-.1.48-.25.92-.4 1.32l-.28.88c0 .17-.17.34-.51.34h-.34c-.1-.1-.24-.14-.42-.19Z" fill="#313030"/><path d="M31.29 68.4a1.7 1.7 0 0 1-.04.13c-.13-.13-.12-.13.04-.13Z" fill="#313030"/><path fill-rule="evenodd" clip-rule="evenodd" d="M31.24 68.54c-.2.58-.68.86-1.31.7 0 0-.17 0-.17-.17-.51-.33-.68-.67-.51-1.18.08-.42.21-.85.34-1.27.13-.42.25-.85.34-1.27 0-.17 0-.17.17-.34a.9.9 0 0 0-.36-.2c-.09-.03-.2-.07-.32-.14-.26.6-.51 1.15-.77 1.7l-.76 1.69a1.8 1.8 0 0 0-.34-.13c-.23-.08-.46-.15-.68-.38-.17 0-.17-.17-.17-.34 0-.08.04-.12.08-.17.04-.04.09-.08.09-.17.55-1.1 1.07-2.19 1.59-3.27.76-1.6 1.5-3.17 2.32-4.68v-.17c.17-.51.17-.68-.17-1.02.17-.34.5-.68.85-.5.68.16 1.02.33 1.02 1h.5c.52 0 1.03.18 1.54.52s.68.84.51 1.52c0 .09-.04.17-.09.25-.04.09-.08.17-.08.26-.26.6-.55 1.18-.85 1.78-.3.59-.6 1.18-.85 1.77-.17.34-.34.68-.68.85-.1.1-.25.14-.42.19a1.7 1.7 0 0 0-.43.15c0 .17 0 .17-.17.34-.09.25-.17.55-.26.84l-.25.85v.34c0 .32 0 .5.3.65Zm-1.31-4.88c.08.08.21.12.34.17.13.04.25.08.34.17.5.16.85.16 1.19-.34l.76-1.61c.26-.55.51-1.1.77-1.61 0 0 0-.17.17-.17.17-.34 0-.5-.17-.68-.34-.17-.51-.17-.85-.17-.17 0-.34.17-.51.34-.34.6-.64 1.23-.94 1.87-.3.63-.6 1.27-.93 1.86l-.17.17Z" fill="#313030"/><path d="m31.24 68.54.05.03-.04-.04v.01Z" fill="#313030"/><path fill-rule="evenodd" clip-rule="evenodd" d="M48.3 74.5c.5 0 .84-.35.84-.85-.5-.17-.5-.34-.5-1.02v-.5c.33-1.53.67-3.22.84-4.75.17-.84.34-1.86.51-2.88 0-.84-.34-1.35-1.02-1.69a4.9 4.9 0 0 0-1.53-.34c-1.02 0-1.7.51-1.87 1.53-.17 1.18-.34 2.2-.5 3.21-.18.76-.3 1.57-.43 2.37s-.26 1.61-.43 2.37c0 .17-.04.38-.08.6a3.3 3.3 0 0 0-.09.59c0 .34 0 .5.34.5h1.02c.09-.67.22-1.4.34-2.11.13-.72.26-1.44.34-2.12.26.09.51.13.77.17.25.04.5.09.76.17-.08.42-.12.8-.17 1.19-.04.38-.08.76-.17 1.18 0 .26-.04.47-.08.68-.04.21-.09.42-.09.68 0 .67.34 1.01.85 1.01h.34Zm-.35-6.1v.34a7.22 7.22 0 0 0-.76-.15c-.31-.05-.57-.1-.77-.2 0-.25.05-.5.09-.75.04-.26.08-.51.08-.77 0-.84.17-1.69.34-2.54 0-.5.17-.67.51-.67.51 0 .85 0 1.02.34.17.16.17.33.17.5a31.11 31.11 0 0 0-.68 3.9Z" fill="#313030"/><path d="M23.13 64.67c-.34.34-.51.51-1.02.51-.51-.17-.85-.5-.85-1.02-.85.17-1.53-.33-2.04-.84a1.04 1.04 0 0 1-.17-1.19c.08-.08.12-.2.17-.34.04-.12.08-.25.17-.33 1.53-2.2 3.06-4.4 4.42-6.6 0-.1.04-.13.08-.18.04-.04.09-.08.09-.17.17-.33.17-.5-.17-.67l-.17-.17c.17-.34.5-.51 1.02-.51.17 0 .5.17.68.34.34.17.34.5.17.85a.8.8 0 0 0-.2.35l-.14.32a235 235 0 0 0-2.3 3.39c-.76 1.14-1.53 2.28-2.3 3.38 0 .09-.04.13-.08.17-.04.05-.08.09-.08.17-.17.34-.17.51.17.68.34.34.68.34 1.02.17.17 0 .17-.17.17-.17a168.4 168.4 0 0 1 4.76-6.94c.17-.34.34-.68.68-1.02.34.17.68.34 1.02.68.08.09.13.13.13.17 0 .04-.05.08-.13.17 0 0-.17.17-.17.34-1.7 2.54-3.4 5.08-5.1 7.45 0 .08-.05.12-.09.17-.04.04-.08.08-.08.17-.17.16 0 .33.34.67Z" fill="#313030"/><path fill-rule="evenodd" clip-rule="evenodd" d="M92.42 63.66c.04.04.09.08.09.17a8.04 8.04 0 0 1 2.04-1.19l.5-.5c.69-.85.69-1.53.18-2.38-1.36-2.2-2.9-4.23-4.42-6.26l-.52-.5c-.34-.35-.85-.35-1.36-.18-.68.17-1.19.51-1.36 1.19-.17.17-.17.17-.17.34-.34-.17-.5-.17-.85 0-.17 0-.34.16-.5.33-.35.34-.35.68 0 1.02h.16c.34-.17.51-.17.68.17 0 .08.05.13.09.17.04.04.08.08.08.17l2.64 3.64c.9 1.23 1.79 2.45 2.64 3.64 0 .08.04.12.08.17Zm.77-1.78a2 2 0 0 0-.34.25c0-.08 0-.12-.03-.15-.02-.02-.06-.02-.14-.02-.77-1.1-1.53-2.15-2.3-3.21a224.5 224.5 0 0 1-2.3-3.22c0-.13-.02-.23-.04-.32-.04-.15-.06-.25.04-.36 0-.34.17-.5.51-.67.34 0 .51 0 .68.17l.17.16.89 1.2a132.6 132.6 0 0 1 3.37 4.73c.34.5.34.85-.17 1.19-.09.08-.22.16-.34.25Zm-8.17 6.18c-.5 0-1.02-.17-1.19-.68-.08-.08-.12-.17-.17-.25a.89.89 0 0 0-.17-.26c-.6-1.1-1.19-2.24-1.78-3.38l-1.79-3.39s0-.17-.17-.17c-.34-.67-.34-1.52.34-2.03a4.2 4.2 0 0 1 1.87-1.02c.68 0 1.02.17 1.36.68.17.17.17.34.17.34.6 1.1 1.2 2.24 1.79 3.39l1.78 3.38c.51 1.02.17 1.86-.5 2.37-.18.68-1.03 1.02-1.54 1.02Zm.34-1.36c.68 0 1.02-.67.68-1.18a38.14 38.14 0 0 1-1.87-3.73l-1.53-3.04c-.17-.34-.5-.51-.85-.34-.17 0-.34.17-.5.34-.18.17-.18.5-.18.67 0 0 0 .17.17.17a247.37 247.37 0 0 1 3.66 6.94c.04.05.08.09.08.17-.17 0 0 .17.34 0Zm-9.86 3.73c.17.68.68 1.01 1.7 1.01.51 0 1.2-.16 1.87-.5.51-.34.68-.85.68-1.53a.6.6 0 0 0-.08-.25.54.54 0 0 1-.09-.25l-1.27-3.64a351.3 351.3 0 0 0-1.28-3.64c0-.09-.04-.17-.08-.26a.6.6 0 0 1-.09-.25c-.34-.51-.68-.85-1.19-.85a2.81 2.81 0 0 0-2.55.85c-.34.34-.51.67-.51 1.01 0 .34 0 .51.17.85.68 1.7 1.36 3.55 2.04 5.42.17.67.34 1.35.68 2.03Zm-1.36-8.8c.34-.17.51-.17.68-.17.34 0 .51 0 .51.33.17.51.38 1.06.6 1.61l.6 1.61c.25.68.46 1.31.67 1.95.21.63.43 1.27.68 1.95v.16c.34.68 0 1.19-.68 1.19-.34 0-.5-.17-.68-.5a6.01 6.01 0 0 0-.34-.94c-.13-.3-.25-.6-.34-.93a187 187 0 0 1-2.04-5.41v-.18c0-.17 0-.5.34-.67Z" fill="#313030"/><path d="M41.38 5.13c.72 3.19 1.46 6.45 2.32 9.6a.6.6 0 0 0-.25.08.6.6 0 0 1-.26.09c-.07 0-.14.03-.22.06-.12.05-.26.1-.46.1-.34 0-.5 0-.5-.33-.1-.5-.22-1.06-.35-1.6a122.85 122.85 0 0 0-1.1-5.04c-.32-1.43-.66-2.87-.94-4.37v-.16l-.5.13c-.35.07-.69.15-1.03.37l-.51-1.01c0-.17 0-.34.34-.34.26-.09.47-.13.68-.17.21-.04.43-.09.68-.17l1.2-.25 1.18-.26c.34 0 .68-.17 1.02-.34.17.34.34.68.34 1.02 0 .17 0 .34-.34.34-.19.1-.38.13-.6.18-.17.04-.36.08-.59.16-.17 0-.34 0-.5.17l.39 1.74Zm24.77 57.51c-.51.17-.85.5-.68 1.19.15 0 .27.03.4.07a2 2 0 0 0 .62.1v.16c.08.6.21 1.19.34 1.78.13.6.25 1.19.34 1.78l.5 2.45c.18.8.35 1.61.52 2.46 0 .34 0 .5.17.68.17.17.34.34.68.34.17 0 .5 0 .68-.17.34-.17.51-.51.34-1.02h-.17c-.16 0-.25 0-.31-.04-.07-.04-.11-.12-.2-.3v-.17c0-.5-.17-1.18-.34-1.86a5.25 5.25 0 0 1-.17-.68 6 6 0 0 0-.17-.67h.17c.25-.09.47-.13.68-.17.21-.05.42-.09.68-.17.17 0 .17-.17.17-.34s-.17-.5-.34-.85c-.36.24-.73.31-1.15.4-.17.03-.36.06-.55.11-.17-.68-.3-1.35-.43-2.03a28.1 28.1 0 0 0-.42-2.03c.17-.17.34-.17.5-.17.35 0 .86 0 1.2-.17.34-.17.34-.17.34-.34 0-.34-.17-.68-.34-1.02-.26.09-.47.13-.68.17-.21.05-.43.09-.68.17-.26.09-.55.13-.85.17-.3.04-.6.09-.85.17Zm-33.67-44.36-.6.34c-.2.13-.42.26-.6.34-.16 0-.33 0-.33-.17 0 0 0-.17-.17-.17-1.36-3.21-2.72-6.43-4.25-9.65-.11-.33-.3-.65-.5-1.03l-.35-.66c0-.08-.05-.13-.09-.17-.04-.04-.08-.08-.08-.17.17-.08.38-.21.6-.34l.59-.34c.17 0 .34 0 .34.17 0 .09.04.13.08.17.04.05.09.09.09.17 1.36 3.22 2.72 6.44 4.25 9.65.08.26.21.51.34.76.13.26.25.51.34.77.34 0 .34.17.34.33Zm35.37 5.59h6.97v2.2h-6.97v-2.2Z" fill="#313030"/></svg>