<svg viewBox="0 0 190 49" fill="none" xmlns="http://www.w3.org/2000/svg"><path fill-rule="evenodd" clip-rule="evenodd" d="M151.84 32.37c6.63-1.24 26.64-5 30.98-2.3.81.66-.32.9-.55.72a.23.23 0 0 1-.04-.11l.01-.03-.01.03c-.01.04 0 .08.04.1.3.54 2.33 2.25 2.85-.32.2-1.15-.38-2.1-1.34-2.68-4.58-3-24.15.63-31.52 1.99l-1.68.3-.96.2c-3.46.77-5.38.2-6.34-.77-.57-.57-.76-1.34-.57-2.3v-.2c2.88-.18 5.75-1.34 6.14-3.25 0-.58-.2-.96-.38-1.35-.39-.38-.77-.57-1.16-.77-1.72-.57-3.45.39-4.8 2.12a16.9 16.9 0 0 0-1.14 1.91c-.77 0-1.54 0-2.12-.19-.76-.19-1.53-.38-1.72-.77-.2-.38-.2-.76.19-1.34 0-.1.05-.19.1-.29.04-.1.1-.19.1-.28.18-1.35-.4-1.35-1.54-.58-.39.2-.77.58-1.16.96-1.53 1.53-4.03 4.22-5.18 6.14 0-.8-.05-1.94-.1-3.06-.04-1.04-.09-2.05-.09-2.7v-.76c-.2-.58-.38-.77-.96-.77-.57.19-1.15.77-2.11 1.92-1.92 2.3-5.56 6.33-8.25 6.33-.96 0-1.73-.38-2.11-.96-.11-.1-.16-.28-.21-.47a2.63 2.63 0 0 0-.18-.49c.39-.2.77-.38.96-.57a11.22 11.22 0 0 0 3.65-3.84c.2-.58.2-.96.2-1.35-.2-.57-.4-.96-.78-1.15-.38-.19-.96-.38-1.53-.19h-.2a6.62 6.62 0 0 0-3.83 4.03c-.39.58-.39 1.34-.39 2.11l-2.3 1.15a11.51 11.51 0 0 1-3.84 1.35c-1.15.19-1.92 0-2.3-.58-.2 0-.2-.2-.2-.2-.18-.38-.18-.76-.18-1.33 0-.6.22-1.18.41-1.68.06-.15.12-.3.16-.44.09-.16.13-.33.18-.48.05-.2.1-.37.2-.48l.05-.1c.54-1.26.7-1.63-.24-1.81-.38 0-.57.19-.95.57-.39.2-.77.58-1.35 1.15a54.55 54.55 0 0 1-6.33 4.8 7.38 7.38 0 0 1-3.26 1.15h-.39c-.38-.19-.57-.38-.77-.96-.19-.76-.19-1.53-.19-2.5 0-.57 0-1.34.2-2.1a38.96 38.96 0 0 0 7.86-13.24 21.8 21.8 0 0 0 1.35-6.34c0-.57-.2-1.15-.58-1.34-.38-.38-.96-.38-1.53.2-.58.57-1.73 2.3-3.08 5.36-.37 1-.82 2-1.25 2.94-.23.5-.46 1-.66 1.48a25.18 25.18 0 0 0-1.08 2.44c-.12.29-.2.5-.27.63-.96 2.3-1.72 4.8-2.1 6.9l-.4.4a21.1 21.1 0 0 1-6.7 4.6c-1.93.76-3.27.96-4.04.76-.77-.76-.96-2.1-.58-3.45v-.2c2.7-.57 4.23-1.14 5.19-2.3.57-.57.96-1.72 1.15-2.68a2.5 2.5 0 0 0-.58-2.3c-.57-.58-1.34-.58-2.1-.2-.18.18-.43.39-.7.62-.34.29-.72.6-1.04.92a15.23 15.23 0 0 0-2.87 4.8c-.8.22-1.66.38-2.6.56-.64.12-1.3.24-2.01.4l-.58.1c-1.01.16-2.16.34-3.45.66v-.57c-1.92-10.17-30.7-7.3-31.86-7.1h-.57c.23-.08.46-.19.71-.3.36-.17.75-.36 1.2-.47 4.04-1.54 10.56-4.03 13.63-7.87a8.65 8.65 0 0 0 1.92-6.14c-.2-.96-.38-1.92-.96-2.5-.57-.76-1.15-1.34-2.1-1.53-1.35-.38-3.08 0-5.38 1.34-.96.58-1.92 1.16-2.69 1.92-1.34.96-2.3 1.92-2.88 2.5-4.03 4.03-7.87 9.6-10.94 14.97a83.8 83.8 0 0 1-2.3 4.22 41.3 41.3 0 0 0-2.11-7.1 13.74 13.74 0 0 0-3.07-4.8 11.7 11.7 0 0 0-6.91-3.26 32.5 32.5 0 0 0-7.48 0c-2.3.38-4.42.77-5.76 1.15-.23 0-.38.07-.52.12a.69.69 0 0 1-.25.07c-1.15.39-1.73.58-1.73 1.15 0 .58.39.77.96.96.39 0 .77.2 1.35.58 2.1 1.15 4.41 3.26 6.52 5.37 4.22 4.03 8.25 7.87 11.52 5.57.57-.39.96-.77 1.15-1.35 1.92-4.41-8.06-10.17-12.67-9.2 2.69.18 14.4 5.56 10.56 9.4-2.3 1.53-5.95-1.92-9.6-5.38l-1.08-1c-1.9-1.76-3.7-3.43-5.64-4.56h-.19a29.9 29.9 0 0 1 5.38-.96c2.3-.39 4.6-.39 7.1 0 2.68.38 4.6 1.34 6.14 2.88 1.53 1.34 2.68 3.45 3.45 5.75a41.26 41.26 0 0 1 1.92 7.3c-2.3 4.8-4.03 9.4-4.99 12.47-.57 1.92-.57 3.26-.38 4.03.19.57.57.77.96.96.38.2.96 0 1.34-.2a7.28 7.28 0 0 0 2.69-3.06 21.1 21.1 0 0 0 2.3-10.94c0-.96 0-1.92-.2-2.88a91.17 91.17 0 0 1 3.27-5.95c3.07-5.37 6.72-10.55 10.75-14.58a15.22 15.22 0 0 1 2.68-2.5c.77-.58 1.54-1.15 2.5-1.73 1.92-1.15 3.26-1.34 4.22-1.15.38 0 .77.39 1.15.77.39.58.58 1.15.58 1.73a6.77 6.77 0 0 1-1.54 4.99c-2.88 3.45-9.02 5.95-12.86 7.48-.76.38-1.53.77-2.1.96l-1.16.58c-.57.38-.77.76-.77 1.15.2.57.58.77 1.35.96.57.19 1.15.19 2.1.19 0 0 28.6-3.26 30.14 5.76v.57l-.74.14c-.84.15-1.84.34-2.72.63-8.82 2.11-15.73 4.6-20.91 7.1-8.26 4.03-12.48 7.87-14.2 9.98a9.92 9.92 0 0 0-1.16 1.34l-.19.39c0 .57.39 1.15.96 1.34.58.2 1.15.2 1.73.2 3.26 0 9.6-2.12 9.98-2.31.02-.02.34-.13.9-.33 4.66-1.61 25.8-8.93 27.7-17.33a49.9 49.9 0 0 1 4.4-.96c.92-.11 1.7-.3 2.42-.46.5-.12.96-.23 1.42-.3-.19 1.72 0 3.26 1.16 4.41.1.1.23.14.38.2a.9.9 0 0 1 .38.18c.96.39 2.69.2 5-.76a23.83 23.83 0 0 0 6.13-4.03v.38c-.19 1.15 0 2.3.2 3.07.38.96.76 1.54 1.72 1.92.2.2.39.2.77.2 1.15.18 2.5-.2 4.22-1.35 1.44-.9 3.06-2.15 5.32-3.89l.44-.33c0 .19-.05.38-.1.57-.05.2-.1.39-.1.58 0 .77 0 1.53.4 2.3 0 .2 0 .2.18.38.77 1.16 2.11 1.54 3.65 1.35a17 17 0 0 0 4.41-1.35 8.4 8.4 0 0 0 1.92-.96l.58 1.16c.57.96 1.73 1.53 3.26 1.53 3.45 0 7.3-4.41 9.4-6.9a.83.83 0 0 1 .21-.16c.1-.07.18-.11.18-.23l.06.93c.18 2.7.43 6.4 1.28 6.75.58.19 1.15 0 1.34-.96.39-1.54 3.07-4.61 5-6.34.09.1.14.24.19.39.04.14.1.28.19.38.38.58 1.34 1.15 2.5 1.34.57.2 1.34.2 2.1.2-.19 1.34 0 2.68.96 3.64 1.15 1.34 3.65 2.11 7.68 1.34.08 0 .2-.03.32-.07.19-.05.41-.12.64-.12l1.06-.2Zm34.62.01s0-3.65 2.11-2.5c2.3 1.16-2.1 2.5-2.1 2.5Zm-75.6-15.93c0 .96-.2 1.73-.58 1.92-.58.58-1.73.58-2.3-.38-.97-1.35-.2-2.3 1.14-2.69.2 0 .39-.19.77-.57.39-.39.96-.96 1.73-1.92.77-.77 1.53-1.54 2.3-1.92a9.37 9.37 0 0 1 2.11-.77c.29 0 .43 0 .44.02 0 .03-.14.07-.44.17-.57.2-1.34.58-2.1 1.15a5.56 5.56 0 0 0-2.12 2.11 5.72 5.72 0 0 0-.96 2.88Zm32.42 9.79c.2-.38.39-.77.58-.96.96-1.15 2.11-1.92 3.07-1.53l.38.38v.2c-.19.95-1.91 1.53-4.03 1.91Zm-27.13.44a.63.63 0 0 0 .07-.25c.58-1.34 1.54-2.5 2.88-2.88h.39s-.2.2-.2.39a9 9 0 0 1-3.07 3.07l-.19.19c0-.23.07-.38.12-.52Zm-21.3-6.26c.3-.78.6-1.6.84-2.43.2-.39.58-1.34 1.15-3.07l.51-1.22c.42-1.02.87-2.1 1.41-3.2a31.78 31.78 0 0 1 2.5-4.41c0 1.15-.58 3.07-1.35 5.37a37.45 37.45 0 0 1-5.56 10.37c.15-.45.32-.92.5-1.4Zm-13.74 4.48c.57-1.15 1.34-2.5 2.1-3.27.37-.36.74-.65 1-.86l.35-.29c.2-.19.38-.19.38-.19.2 0 .2.58.2.96-.2.77-.39 1.54-.77 1.92-.58.77-1.54 1.34-3.26 1.73Zm-14.97 4.8 2.88-.58c-2.88 8.06-27.45 15.74-27.25 15.54 0 0-6.34 2.3-9.6 2.3h-.96l.77-.76c1.53-1.92 5.76-5.76 13.62-9.6a94.22 94.22 0 0 1 20.54-6.9Zm-42.22 11.32c.77-2.5 2.11-6.14 3.84-9.98v.38c.19 4.42-.77 7.87-2.11 10.17a9.99 9.99 0 0 1-2.12 2.5c-.19-.58 0-1.54.39-3.07Zm44.33 3.45-.58-.2h.2v-4.98c0-.2.19-.2.19-.2h2.1c.78 0 1.54.58 1.54 1.54 0 .77-.57 1.35-1.15 1.54l.96 1.92s0 .19-.2.19h-.76l-.96-1.92h-1.15v1.92c0 .2-.2.2-.2.2Zm.19-4.6v1.92h1.34c.58 0 .96-.39.96-.96 0-.58-.57-.96-.96-.96h-1.34Zm10.36 4.6-3.07-.2v-4.98c0-.2.2-.2.2-.2h2.87c.2 0 .2.2.2.2v.38c0 .2-.2.2-.2.2h-2.3v1.53h1.92c.2 0 .2.2.2.2v.38c0 .19-.2.19-.2.19h-1.92v1.53h2.3c.2 0 .2.2.2.2v.38c0 .2-.2.2-.2.2Zm5.95 0a2.3 2.3 0 0 1-1.53-.57c-.09-.09-.14-.14-.13-.15l.32.15c0-.1.05-.15.1-.2.04-.04.1-.1.1-.19h.18c0 .2.58.58 1.15.58.39 0 .77-.39.77-.77s-.38-.58-1.15-.96c-.77-.2-1.34-.77-1.34-1.53 0-.58.38-1.35 1.53-1.35.77 0 1.35.39 1.35.39v.19l-.2.19h-.19s-.57-.38-.96-.38c-.57 0-.77.38-.77.57 0 .39.39.77.96.96.77.38 1.54.77 1.54 1.73 0 .77-.77 1.34-1.73 1.34Zm7.1 0-.57-.2h-.2v-4.4h-1.15c-.19 0-.19-.2-.19-.2v-.38c0-.2.2-.2.2-.2h3.26c.19 0 .19.2.19.2v.38c0 .2-.2.2-.2.2h-1.15v4.4c0 .2-.19.2-.19.2Zm5.18-.2h-.38c-.2 0-.2 0-.38-.18l2.3-5h.38l2.3 5s0 .19-.19.19h-.38c-.2 0-.2-.2-.2-.2l-.38-.95h-2.49c0 .19-.2.57-.38.96 0 .19-.2.19-.2.19Zm1.92-3.83-.96 2.11h1.92l-.96-2.1Zm8.25 3.84c-1.15 0-1.91-.77-1.91-1.92h-.2v-3.07c0-.2.2-.2.2-.2h.57c.2 0 .2.2.2.2v3.07c0 .77.38 1.34 1.14 1.34.77 0 1.16-.57 1.16-1.34v-3.07c0-.2.19-.2.19-.2h.57c.2 0 .2.2.2.2v3.07c0 .96-.96 1.92-2.11 1.92Zm7.3.2-.58-.2h.39v-4.99c0-.2.19-.2.19-.2h1.92c.76 0 1.53.58 1.53 1.54 0 .77-.57 1.35-1.15 1.54l.96 1.92s0 .19-.2.19h-.76l-.96-1.92h-1.15v1.92c0 .2-.2.2-.2.2Zm.19-4.61v1.92h1.34c.58 0 .96-.39.96-.96 0-.58-.38-.96-.96-.96h-1.34Zm7.1 4.4h-.38s-.2 0-.39-.18l2.3-5h.39l2.3 5s0 .19-.19.19h-.38c-.2 0-.2-.2-.2-.2l-.38-.95h-2.5c0 .19-.19.57-.38.96 0 .19-.19.19-.19.19Zm1.92-3.83-.96 2.11h1.92l-.96-2.1Zm7.1 4.03-.58-.2v-4.98c0-.2.2-.2.2-.2h.19l3.26 3.65v-3.45c0-.2.2-.2.2-.2h.38c.19 0 .19.2.19.2v4.99c0 .2-.2.2-.2.2h-.19l-3.26-3.85v3.65c0 .2-.19.2-.19.2Zm9.6 0-.58-.2h-.2v-4.4h-1.14c-.2 0-.2-.2-.2-.2v-.38c0-.2.2-.2.2-.2h3.26c.19 0 .19.2.19.2v.38c0 .2-.2.2-.2.2h-1.14v4.4c0 .2-.2.2-.2.2Zm9.02-.2h-.2l-2.5-4.98s0-.2.2-.2h.77l1.73 3.65 1.53-3.64h.77c.19 0 .19.19.19.19l-2.3 4.99h-.2Zm9.4.2-3.07-.2v-4.98c0-.2.19-.2.19-.2h2.88c.19 0 .19.2.19.2v.38c0 .2-.2.2-.2.2h-2.3v1.53h1.92c.2 0 .2.2.2.2v.38c0 .19-.2.19-.2.19h-1.91v1.53h2.3c.19 0 .19.2.19.2v.38c0 .2-.2.2-.2.2Zm6.71 0a2.62 2.62 0 0 1-2.68-2.69c0-1.53 1.34-2.68 2.88-2.87.57 0 1.15.38 1.72.76v.2l-.38.38h-.2a2.07 2.07 0 0 0-1.34-.58c-1.15 0-1.91.96-1.91 1.92s.96 1.92 1.91 1.92c.58 0 1.16-.19 1.16-.19v-.77h-.77c-.2 0-.2-.19-.2-.19v-.38c0-.2.2-.2.2-.2h1.34c.2 0 .2.2.2.2v1.92s-.77.57-1.93.57Zm8.64 0a2.62 2.62 0 0 1-2.69-2.69c0-1.53 1.16-2.68 2.88-2.87.58 0 1.15.38 1.73.76v.2l-.38.38h-.2a2.07 2.07 0 0 0-1.34-.58 1.92 1.92 0 0 0 0 3.84c.58 0 1.15-.19 1.15-.19v-.77h-.77c-.19 0-.19-.19-.19-.19v-.38c0-.2.2-.2.2-.2h1.34c.19 0 .19.2.19.2v1.92s-.77.57-1.92.57Zm6.9 0-.57-.2h-.19v-4.98c0-.2.2-.2.2-.2h.57c.2 0 .2.2.2.2v4.99c0 .2-.2.2-.2.2Zm7.88 0-3.07-.2v-4.98c0-.2.19-.2.19-.2h2.88c.19 0 .19.2.19.2v.38c0 .2-.2.2-.2.2h-2.3v1.53h1.92c.2 0 .2.2.2.2v.38c0 .19-.2.19-.2.19h-1.92v1.53h2.3c.2 0 .2.2.2.2v.38c0 .2-.2.2-.2.2Z" fill="#313030"/></svg>