<svg viewBox="0 0 149 69" fill="none" xmlns="http://www.w3.org/2000/svg"><path d="m3.84 24.19-3.84-11.61 2.56-.97a4.53 4.53 0 0 1 2.08 0c.64.16 1.12.48 1.44 1.13.32.32.48.64.64 1.13.32.8.32 1.45 0 2.1-.16.16-.32.48-.48.64.48 0 .8.16 1.28.48.32.33.48.65.8.97.16.16.16.48.32.8.32.81.32 1.46.16 1.94 0 .49-.32.97-.64 1.3-.16.48-.64.8-1.12.96l-3.2 1.13Zm-.32-7.58.8-.32c.48-.16.8-.65.8-1.13 0-.16 0-.49-.16-.8-.32-.33-.48-.65-.8-.81a1.01 1.01 0 0 0-.96 0l-.8.16 1.12 2.9Zm1.6 5.16.8-.32c.64-.16.96-.65.96-1.3 0-.15 0-.48-.16-.8-.16-.64-.48-1.13-.8-1.29-.32-.16-.64-.16-1.12 0l-.8.32 1.12 3.39Zm13.77-2.1a2.8 2.8 0 0 1-2.25-.32 2.5 2.5 0 0 1-1.28-1.77l-2.4-9.03 1.76-.49 2.4 9.03c0 .33.16.49.48.65.32.16.48.16.8.16.33 0 .49-.16.65-.48.16-.33.16-.49.16-.81l-2.4-9.03 1.76-.48 2.4 9.19c.16.8.16 1.45-.32 2.25-.48.49-1.12.97-1.76 1.13Zm9.6-14.83c.96-.16 1.76 0 2.4.32.48.32.8.97.96 1.94l.32 1.77c.16.8 0 1.61-.48 2.42l2.4 5-1.92.32-1.92-4.35h-.16l-.96.16.96 4.51-1.76.32-2.4-11.93 2.56-.48Zm1.76 2.58c-.16-.65-.48-.97-1.28-.8l-1.12.15.8 3.87 1.12-.16c.32 0 .48-.16.64-.48.16-.32.16-.49.16-.8l-.32-1.78Zm12.96 7.42c-.8.16-1.44 0-2.08-.49a3 3 0 0 1-1.12-1.93l-.96-6.61c-.16-.81 0-1.46.48-2.1a2.96 2.96 0 0 1 1.92-1.13c.8-.16 1.44 0 2.08.48a3 3 0 0 1 1.12 1.94l.16 1.29-1.92.32-.16-1.45c0-.32-.16-.48-.48-.64-.16-.17-.48-.33-.8-.17-.32 0-.48.17-.64.49-.16.16-.16.48-.16.8l.96 6.45c0 .33.16.49.48.65.16.16.48.32.8.16.32 0 .48-.16.64-.48.16-.16.32-.49.16-.8l-.32-2.43-.96.16-.32-1.77 2.88-.48.64 4.19c.16.8 0 1.45-.48 2.1a2.46 2.46 0 0 1-1.92 1.45Zm9.29-1.29-.97-12.26 5.13-.48.16 1.93-3.37.32.32 3.23 2.4-.16.17 1.77-2.4.32.31 3.23 3.37-.32.16 1.93-5.29.49Zm13.92-13.23c.96 0 1.76.16 2.24.8.48.5.8 1.14.8 2.1v1.78c0 .8-.32 1.61-.96 2.26l1.6 5.32h-1.92l-1.28-4.52h-1.28l.16 4.52h-1.76l-.48-12.26h2.88Zm1.28 2.9c0-.64-.32-.96-1.12-.96h-1.12l.16 3.87h1.12c.32 0 .48-.16.8-.32.16-.17.32-.49.32-.81l-.16-1.77Zm27.37 7.26c0 .8-.32 1.45-.96 1.94-.64.48-1.29.8-2.09.64l-2.88-.16.96-12.1 2.88.17c.8 0 1.45.32 1.93.97.48.64.8 1.29.64 2.1l-.48 6.44Zm-4 .65 1.11.16c.32 0 .48 0 .8-.32.16-.17.33-.49.33-.65l.48-6.29c0-.32 0-.48-.32-.8a1.21 1.21 0 0 0-.65-.33l-1.12-.16-.64 8.39Zm11.68-11.13 1.76.16-.64 2.74-1.12-.16v-2.74Zm11.2 15.96-4.96-.8 2.08-12.1 1.76.33-1.76 10.16 3.2.64-.32 1.77Zm8.69-10.78-2.54 11.98 1.72.37 2.54-11.98-1.72-.37Zm8.43 14.82a2.48 2.48 0 0 1-1.75-1.3 3.57 3.57 0 0 1-.32-2.25l1.75-6.45a2.5 2.5 0 0 1 1.28-1.78 3.56 3.56 0 0 1 2.25-.32c.8.16 1.44.65 1.76 1.3.32.64.48 1.44.32 2.25l-.32 1.29-1.76-.48.32-1.46c0-.32 0-.48-.16-.8-.16-.16-.32-.32-.64-.32s-.48 0-.8.16c-.32.16-.48.32-.48.64l-1.77 6.45c0 .32 0 .49.16.8.16.33.33.5.65.5.31 0 .47 0 .8-.17.32-.16.48-.32.48-.64l.48-1.62 1.76.49-.48 1.61a2.5 2.5 0 0 1-1.28 1.77c-.64.33-1.44.49-2.25.33Zm9.13 2.41 3.84-11.44 4.96 1.6-.64 1.78-3.2-1.13-.96 3.23 2.24.8-.64 1.78-2.24-.8-1.12 3.06 3.2 1.13-.64 1.77-4.8-1.78Zm-117.31 31.77c0 .49-.32.65-.64.65s-.64-.32-.64-.65c0-.32.32-.64.64-.64.32-.16.64.16.64.64Zm4.16.81-.32.64h-.96l1.6-3.87h.96l1.6 3.87h-.96l-.32-.64h-1.6Zm.8-2.26-.64 1.45h1.12l-.48-1.45Zm8.48 2.9v-2.41l-.96 2.1h-.64l-.96-2.1v2.41h-.8v-3.87h.96l1.12 2.26.96-2.26h1.12v3.87h-.8Zm5.12-3.06v.8h1.92v.65h-1.92v.8h2.08v.81h-3.04v-3.87h3.04v.81h-2.08Zm7.05 1.93h-.8v1.13h-.97v-3.87h1.76c.96 0 1.6.49 1.6 1.3 0 .64-.32.96-.64 1.28l.8 1.3h-1.12l-.64-1.13Zm0-.64c.47 0 .63-.16.63-.64 0-.33-.32-.65-.64-.65h-.8v1.3h.8Zm5.91-2.1h-.96v3.87h.96v-3.87Zm6.57.64-.64.65c-.32-.32-.64-.48-.96-.48a1.1 1.1 0 0 0-1.12 1.13c0 .64.48 1.13 1.12 1.13.32 0 .64-.16.96-.49l.64.65c-.48.48-.96.64-1.6.64-1.12 0-2.08-.8-2.08-1.93s.8-1.94 2.08-1.94c.64 0 1.28.33 1.6.65Zm4 2.59-.32.64h-.96l1.6-3.87h.96l1.6 3.87h-.96l-.32-.64h-1.6Zm.8-2.26-.48 1.45h1.12l-.64-1.45Zm7.84 2.9-1.76-2.41v2.41h-.96v-3.87h.8l1.76 2.42v-2.42h.96v3.87h-.8Zm8.96-3.06v.8h1.76v.81h-1.76v1.45h-.96v-3.87h2.88v.81h-1.92Zm8.96 1.13c0 1.13-.96 1.93-2.08 1.93s-2.08-.8-2.08-1.93.96-1.94 2.08-1.94 2.08.81 2.08 1.94Zm-3.2 0c0 .64.48 1.13 1.12 1.13a1.1 1.1 0 0 0 1.12-1.13 1.1 1.1 0 0 0-1.12-1.13 1.1 1.1 0 0 0-1.12 1.13Zm10.09 0c0 1.13-.96 1.93-2.08 1.93s-2.08-.8-2.08-1.93.96-1.94 2.08-1.94 2.08.81 2.08 1.94Zm-3.2 0c0 .64.48 1.13 1.12 1.13a1.1 1.1 0 0 0 1.12-1.13 1.1 1.1 0 0 0-1.12-1.13 1.1 1.1 0 0 0-1.12 1.13Zm8-1.94c1.28 0 2.08.81 2.08 1.94s-.8 1.93-2.08 1.93h-1.6v-3.87h1.6Zm-.64 3.07h.64c.64 0 .96-.49.96-1.13a1.1 1.1 0 0 0-1.12-1.13h-.64v2.26h.16Zm6.71-3.07h-.95v3.87h.96v-3.87Zm6.1 3.87-1.77-2.41v2.41h-.96v-3.87h.96l1.76 2.42v-2.42h.8v3.87h-.8Zm7.51-1.93v1.45c-.48.32-1.12.48-1.6.48-1.12 0-2.08-.8-2.08-1.93s.96-1.94 2.08-1.94c.64 0 1.12.17 1.6.65l-.48.64c-.32-.32-.64-.48-.96-.48a1.1 1.1 0 0 0-1.12 1.13c0 .64.48 1.13 1.12 1.13.16 0 .48 0 .64-.16v-.97h.8Zm4.49.48c0 .49-.33.65-.65.65s-.64-.32-.64-.65c0-.32.32-.64.64-.64.48-.16.64.16.64.64Zm-92.35-17.74v-3.87h1.76v.49h-1.12v1.13h.8v.64h-.8v.97h1.12v.64h-1.76Zm6.25-.96c0 .32 0 .48-.17.64-.16.16-.16.16-.48.32h-.32c-.16 0-.48 0-.64-.16l-.32-.32c0-.16-.16-.32-.16-.48h.48c0 .16.16.32.16.48l.16.16c.16 0 .16 0 .32-.16v-.32c0-.16 0-.32-.16-.49l-.48-.48-.48-.48c-.16-.16-.16-.33-.16-.49 0-.32.16-.64.32-.8.16-.16.32-.16.48-.16.16 0 .32 0 .48.16.16 0 .16.16.32.32 0 .16.16.32.16.48l-.48.16c0-.16 0-.32-.16-.32l-.16-.16c-.16 0-.16 0-.32.16v.32c0 .17 0 .33.16.49l.32.32c.16.16.16.16.32.16.16.16.32.32.32.49 0 0 0 .16.16.16.16-.16.32-.16.32 0Zm3.03-2.42h-.64v-.49h1.92v.49h-.64v3.38h-.64v-3.38Zm4.32 2.74h-.64v.64h.64v-.64Zm51.38-2.1c0-.32.16-.64.32-.8.16-.16.32-.33.64-.33s.48.17.64.33c.16.16.32.48.32.64 0 .32 0 .49-.16.8 0 .17-.16.33-.48.65 0 .16-.16.16-.32.49l-.16.16c0 .16-.16.16-.16.32h1.12v.65h-1.92v-.49s0-.16.16-.16l.16-.16.16-.16c.16-.16.16-.32.48-.65.16-.32.32-.48.48-.64 0-.16.16-.32.16-.49 0-.16 0-.16-.16-.32 0-.16-.16-.16-.32-.16s-.32.16-.32.32v.33l-.64-.33Zm6.24 1.94c0 .32-.16.48-.32.64-.16.16-.32.33-.64.33s-.48-.17-.64-.33c-.16-.16-.32-.32-.32-.64v-2.1c0-.32.16-.48.32-.64.16-.16.32-.33.64-.33s.48.17.64.33c.16.16.32.48.32.64v2.1Zm-.64-2.26c0-.16 0-.16-.16-.16l-.16-.16c-.16 0-.16 0-.16.16l-.16.16v2.1c0 .16 0 .16.16.16l.16.16c.16 0 .16 0 .16-.16l.16-.16v-2.1Zm3.52 3.06v-3.06h-.48v-.48c.16 0 .32 0 .48-.16l.32-.33h.48v3.87h-.8v.16Zm4.16-2.9v-.32l-.16-.16c-.16 0-.16 0-.16.16v1.12c.16-.15.32-.15.48-.15.32 0 .48.16.64.32.16.16.16.32.16.64v.65c0 .32-.16.48-.32.64-.16.17-.32.33-.64.33s-.48-.16-.64-.33c-.16-.16-.32-.32-.32-.64v-2.1c0-.16 0-.32.16-.48.16-.16.16-.32.32-.32h.32c.32 0 .48.16.64.32.16.16.32.32.32.64v.17h-.8v-.49Zm-.64 1.94v.16l.16.16c.16 0 .16 0 .16-.16v-.81c0-.16 0-.16-.16-.32h-.16c-.16 0-.16 0-.16.16v.81h.16Zm-22.09-4.36c-.48 0-.64-.16-.96-.48-.48-.32-1.12-.97-2.24-.97s-1.76.49-2.24.97c-.32.32-.48.48-.96.48s-.64-.16-.96-.48c-.48-.32-1.12-.97-2.24-.97s-1.76.49-2.24.97c-.32.32-.48.48-.96.48s-.64-.16-.96-.48c-.48-.32-1.12-.97-2.24-.97s-1.76.49-2.24.97c-.32.32-.48.48-.96.48s-.64-.16-.96-.48c-.48-.32-1.12-.97-2.24-.97s-1.76.49-2.24.97c-.32.32-.48.48-.96.48s-.64-.16-.96-.48c-.48-.32-1.12-.97-2.24-.97s-1.76.49-2.24.97c-.32.32-.48.48-.96.48-.8 0-1.44-.64-1.44-1.45 0-1.93 6.88-7.42 17.6-7.42 10.72 0 17.6 5.49 17.6 7.42 0 .49.48.97.97.97.48 0 .96-.48.96-.97 0-3.7-8.8-9.35-19.53-9.35-10.72 0-19.53 5.64-19.53 9.35 0 1.94 1.6 3.55 3.53 3.55 1.12 0 1.76-.48 2.24-.97.32-.32.48-.48.96-.48s.64.16.96.48c.48.32 1.12.97 2.24.97s1.76-.48 2.24-.97c.32-.32.48-.48.96-.48s.64.16.96.48c.48.32 1.12.97 2.24.97s1.76-.48 2.24-.97c.32-.32.48-.48.96-.48s.64.16.96.48c.48.32 1.12.97 2.24.97s1.76-.48 2.24-.97c.32-.32.48-.48.96-.48s.64.16.96.48c.48.32 1.12.97 2.24.97s1.76-.48 2.24-.97c.32-.32.48-.48.96-.48s.64.16.96.48c.48.32 1.12.97 2.24.97.96 0 1.44.48 1.44.64 0 .17-.16.17-.32.33-.32.16-.8.32-1.12.32h-32.32a3.57 3.57 0 0 0-3.53 3.55v.96c0 1.94 1.6 3.55 3.53 3.55h32.16a3.57 3.57 0 0 0 3.53-3.55c0-.48-.48-.96-.97-.96-.48 0-.96.48-.96.96 0 .81-.64 1.46-1.44 1.46h-32.32c-.8 0-1.44-.65-1.44-1.46v-.96c0-.8.64-1.45 1.44-1.45h32.16c.8 0 1.6-.17 2.24-.65.65-.48 1.13-1.13 1.13-1.93v-.33c0-1.45-1.45-2.58-3.37-2.58Zm-24.96-5.16-.8.33c-.16.16-.32.32-.32.48v.48c.16.16.16.33.48.33h.16c.32 0 .64-.17.64-.49l.16-.8v-.33h-.32Zm9.28 0-.8.33c-.16.16-.32.32-.32.48-.16.32.16.8.48.8h.16c.32 0 .64-.16.64-.48l.16-.8v-.33h-.32Zm9.28 0-.8.33c-.16.16-.32.32-.32.48-.16.32.16.8.48.8h.16c.32 0 .64-.16.64-.48l.16-.8v-.33h-.32Zm-13.92-1.29-.8.33c-.16 0-.32.32-.32.48-.16.32.16.8.48.8h.16c.32 0 .64-.16.64-.48l.16-.8c0-.17 0-.17-.16-.33h-.16Zm9.28 0-.8.33c-.16.16-.32.32-.32.48v.48c.16.16.16.33.48.33h.16c.32 0 .64-.17.64-.49l.16-.8v-.33h-.32Zm-.8 38.87c0-.16-.16-.33-.32-.33l-2.56-.16-.96-2.42a.45.45 0 0 0-.8 0l-.96 2.42-2.56.16c-.16 0-.32.17-.32.33s0 .32.16.48l2.08 1.61-.64 2.58c0 .16 0 .33.16.49.16.16.32.16.48 0l2.24-1.45 2.24 1.45h.16c.16 0 .48-.16.48-.49v-.16l-.64-2.42 2.08-1.61c-.32 0-.16-.32-.32-.48Zm12 1.45h-8.32c-.16 0-.48-.16-.48-.32 0-.17.16-.49.48-.49h8.32c.16 0 .48.16.48.49 0 .32-.16.32-.48.32Zm-1.28 2.09h-8.32c-.16 0-.48-.16-.48-.48 0-.16.16-.48.48-.48h8.32c.16 0 .48.16.48.48-.16.32-.32.48-.48.48Zm-22.88-2.09h-8.32c-.16 0-.48-.16-.48-.32 0-.17.16-.49.48-.49h8.32c.16 0 .48.16.48.49 0 .32-.32.32-.48.32Zm1.28 2.09h-8.32c-.16 0-.48-.16-.48-.48 0-.16.16-.48.48-.48h8.32c.16 0 .48.16.48.48 0 .32-.16.48-.48.48Z" fill="#313030"/></svg>