<svg viewBox="0 0 48 48" fill="none" xmlns="http://www.w3.org/2000/svg"><g clip-path="url(#a)"><path fill-rule="evenodd" clip-rule="evenodd" d="M5.48 15a3 3 0 0 0-2.97 3.44l2.45 16.52a9 9 0 1 0 16.53 7.04h9.02a9 9 0 1 0 14.07-10.06l-2.24-9.28a10 10 0 0 0-9.72-7.66h-27.14Z" fill="#FFE145"/><path d="M47.25 40.5a6.74 6.74 0 0 0-3.44-5.87 8.89 8.89 0 0 0-5.32-11.06l-.24-.09v-1.4c.44.26.95.42 1.5.42h6v-6h-6c-.55 0-1.06.16-1.5.42v-.42c0-1.2-.58-2.32-1.54-3.02a2.62 2.62 0 0 0-2.59-2.23h-9.17a5.98 5.98 0 0 0 2-3.75h2.3a2.25 2.25 0 0 0 0-4.5h-3.58a6 6 0 1 0-7.65 8.95 6.78 6.78 0 0 0-3.38 3.8h-11.64c-1.24 0-2.25 1-2.25 2.25v9a2.25 2.25 0 0 0 2.25 2.25h2.33a5.23 5.23 0 0 0-1.58 3.75v1.52a3.73 3.73 0 0 0 2.25 6.73h1.58a3.76 3.76 0 0 0 7.34 0h20.4a3.76 3.76 0 0 0 7.35 0h4.58v-.75Zm-4.5-8.62c0 1.97-.77 3.83-2.16 5.22l-2.65 2.65h-2.69v-23.51c.46-.22.84-.56 1.1-1 .25.38.4.8.4 1.26v8.02l1.21.45a7.41 7.41 0 0 1 4.79 6.91Zm-10.59 5.16-2.13-9.06a5.98 5.98 0 0 0-4.85-4.54l-.43-.08v-6.86h9v23.25h-2.03c.34-.53.53-1.14.53-1.78v-.18c0-.25-.03-.5-.09-.75Zm12.09-16.04h-1.5v-3h1.5v3Zm-4.5-3h1.5v3h-1.5a1.5 1.5 0 0 1 0-3Zm-9.75-12.75c0 .41-.34.75-.75.75h-6.29l.13-.26a2.24 2.24 0 0 1 2.01-1.24h4.15c.41 0 .75.34.75.75Zm-9-3a4.5 4.5 0 0 1 2.8.99c-.88.32-1.62.96-2.05 1.83l-.46.93h-4.72a4.5 4.5 0 0 1 4.43-3.75Zm-4.43 5.25h8.86a4.5 4.5 0 0 1-8.86 0Zm-.82 10.5c0-2.9 2.35-5.25 5.25-5.25h13.13a1.13 1.13 0 0 1 0 2.25h-13.88v1.5h3v8.14l1.68.28c1.8.3 3.22 1.63 3.64 3.4l2.13 9.06a2 2 0 0 1 .05.41v.18a1.77 1.77 0 0 1-1.78 1.78c-.81 0-1.52-.55-1.72-1.35l-1.95-7.81a3.74 3.74 0 0 0-3.64-2.84h-2.16a3.75 3.75 0 0 1-3.75-3.75v-6Zm10.47 21.75h-2.97v-6.75c0-1.47-.6-2.8-1.58-3.75 1.03 0 1.92.7 2.17 1.7l1.95 7.82c.1.35.24.68.43.98Zm-23.22-12a.75.75 0 0 1-.75-.75v-9c0-.41.34-.75.75-.75h11.3c-.04.25-.05.5-.05.75v6c0 1.47.6 2.8 1.58 3.75h-12.83Zm8.25 15c-.98 0-1.8-.63-2.11-1.5h4.22a2.25 2.25 0 0 1-2.11 1.5Zm7.5-3h-12.75a2.25 2.25 0 0 1 0-4.5h10.5a2.25 2.25 0 0 1 2.25 2.25v2.25Zm-2.25-6h-10.5c-.26 0-.5.03-.75.08v-.83a3.75 3.75 0 0 1 3.75-3.75h9a3.75 3.75 0 0 1 3.75 3.75v6.75h-1.5v-2.25a3.75 3.75 0 0 0-3.75-3.75Zm22.5 9c-.98 0-1.8-.63-2.11-1.5h4.22a2.25 2.25 0 0 1-2.11 1.5Zm1.06-3 1.59-1.59a8.92 8.92 0 0 0 1.58-2.14 5.25 5.25 0 0 1 2.47 3.73h-5.64Z" fill="#B79C10"/><path d="M11.25 36.75h1.5v1.5h-1.5v-1.5Zm-6 0h1.5v1.5h-1.5v-1.5Zm3 0h1.5v1.5h-1.5v-1.5Z" fill="#B79C10"/></g><defs><clipPath id="a"><path fill="#fff" d="M0 0h48v48h-48z"/></clipPath></defs></svg>