<svg viewBox="0 0 48 48" fill="none" xmlns="http://www.w3.org/2000/svg"><g clip-path="url(#a)"><circle cx="23" cy="25" r="23" fill="#FFE145"/><path d="M25 46c4.18 0 8.28-1.13 11.86-3.3a.77.77 0 1 0-.8-1.3 21.47 21.47 0 1 1-18.46-38.56.77.77 0 0 0-.52-1.44 23 23 0 0 0 7.92 44.6Zm7.4-43.16a21.48 21.48 0 0 1 10.86 31.46.77.77 0 1 0 1.3.81 23.01 23.01 0 0 0-11.64-33.7.77.77 0 1 0-.52 1.43Z" fill="#B79C10"/><path d="M21.93 14.24v6.48a3.8 3.8 0 0 0 2.51 6.06l5.98 5.98 10.84 10.84a1.53 1.53 0 0 0 2.17 0c2.4-2.4.98-5.52-5.42-11.93l-3.25-3.25-5.98-5.98a3.8 3.8 0 0 0-.71-1.72v-6.48a3.8 3.8 0 0 0 2.3-3.5v-8.44a2.25 2.25 0 0 0-.8-1.73 2.27 2.27 0 0 0-3.04.03 2.26 2.26 0 0 0-3.07 0 2.26 2.26 0 0 0-3.01-.05 2.27 2.27 0 0 0-.82 1.75v8.43c0 1.53.9 2.9 2.3 3.51Zm9.03 16.89-4.57-4.57c1-.4 1.78-1.18 2.17-2.17l4.57 4.57-2.17 2.17Zm-4.43-11.64a3.78 3.78 0 0 0-3.06 0v-4.92h3.06v4.92Zm-3.83 3.51a2.3 2.3 0 1 1 4.6 0 2.3 2.3 0 0 1-4.6 0Zm19.65 19.52-10.3-10.3 2.17-2.17 2.7 2.7c7.6 7.6 6.24 8.96 5.43 9.77Zm-21.18-40.22c0-.23.1-.44.27-.58a.76.76 0 0 1 1.04.05c.14.14.22.33.22.53v6.13a.77.77 0 0 0 1.53 0v-6.13c0-.4.32-.73.72-.77h.12c.4.04.7.37.7.77v6.13a.77.77 0 1 0 1.53 0v-6.13a.77.77 0 0 1 1.53 0v8.43a2.3 2.3 0 0 1-2.3 2.3h-3.06a2.29 2.29 0 0 1-2.3-2.3v-8.43Z" fill="#B79C10"/><path d="M18.03 5.96a.77.77 0 0 0-1.02-.38 18.56 18.56 0 0 0-1.6.82l-.06.06a19.17 19.17 0 0 0-6.98 7.05 19.06 19.06 0 0 0 .02 19.03l.01.04.04.06a19.3 19.3 0 0 0 6.94 6.93l.04.03.06.03a19.12 19.12 0 0 0 18.53.28.77.77 0 1 0-.72-1.35 17.6 17.6 0 0 1-7.52 2.05v-1.51a.77.77 0 0 0-1.54 0v1.51a17.5 17.5 0 0 1-7.37-1.98l.75-1.3a.77.77 0 1 0-1.32-.77l-.76 1.3a17.77 17.77 0 0 1-5.4-5.4l1.3-.75a.77.77 0 1 0-.76-1.33l-1.3.76a17.5 17.5 0 0 1-1.98-7.37h1.51a.77.77 0 1 0 0-1.54h-1.5c.1-2.57.78-5.08 1.98-7.37l1.3.75a.77.77 0 1 0 .76-1.32l-1.3-.76a17.66 17.66 0 0 1 5.4-5.4l.75 1.3a.77.77 0 1 0 1.32-.76l-.75-1.3c.26-.14.52-.28.8-.4a.77.77 0 0 0 .37-1.01Zm22.83 26.38a.77.77 0 0 0 1.04-.31 19.06 19.06 0 0 0-.37-18.69 19.17 19.17 0 0 0-6.88-6.88l-.07-.06a18.23 18.23 0 0 0-1.6-.82.77.77 0 0 0-.63 1.4c.27.12.53.26.79.4l-.75 1.3a.77.77 0 1 0 1.32.76l.76-1.3a17.66 17.66 0 0 1 5.4 5.4l-1.31.75a.77.77 0 1 0 .77 1.33l1.3-.75a17.55 17.55 0 0 1 1.97 7.36h-1.5a.77.77 0 0 0 0 1.54h1.51a17.6 17.6 0 0 1-2.06 7.53.77.77 0 0 0 .3 1.04Z" fill="#B79C10"/></g><defs><clipPath id="a"><path fill="#fff" d="M0 0h48v48h-48z"/></clipPath></defs></svg>