<svg viewBox="0 0 48 48" fill="none" xmlns="http://www.w3.org/2000/svg"><path d="m24 0-19.44 38.1c5.08 6.7 12.14 9.9 19.44 9.9 7.22 0 14.32-3.14 19.44-9.9l-19.44-38.1Zm15.25 33.2a17.82 17.82 0 0 1-30.5 0l15.25-29.9 15.25 29.9Zm-15.25 13.3c-6.9 0-13.4-3.15-17.67-8.56l1.62-3.2a19.32 19.32 0 0 0 32.1 0l1.62 3.2a22.47 22.47 0 0 1-17.67 8.56Z" fill="#B79C10"/><path d="M28.22 16.12a2.76 2.76 0 1 1-1.22-2.39l-3-5.89-12.87 25.23a15.75 15.75 0 0 0 25.74 0l-8.65-16.95Zm-9.75 12.7a2.76 2.76 0 1 1 0-5.53 2.76 2.76 0 0 1 0 5.53Zm10.67 6.6Z" fill="#FFE145"/><path d="M29.14 36.18a3.52 3.52 0 1 1 0-7.03 3.52 3.52 0 0 1 0 7.03Zm0-5.53a2.01 2.01 0 1 0 0 4.04 2.01 2.01 0 0 0 0-4.05Zm-10.67-1.08a3.52 3.52 0 1 1 0-7.03 3.52 3.52 0 0 1 0 7.03Zm0-5.53a2.01 2.01 0 1 0 0 4.02 2.01 2.01 0 0 0 0-4.02Zm6.99-4.5a3.52 3.52 0 1 1 3.51-3.52 3.52 3.52 0 0 1-3.51 3.52Zm0-5.53a2.01 2.01 0 1 0 2.01 2.02c0-1.12-.9-2.02-2.01-2.02Z" fill="#B79C10"/></svg>