<svg viewBox="0 0 48 48" fill="none" xmlns="http://www.w3.org/2000/svg"><g clip-path="url(#a)"><path d="M44.96 44.24a20.88 20.88 0 0 1-12.02-7.06l-3.46-4.12a7.15 7.15 0 0 0-10.97 0l-3.46 4.12a20.88 20.88 0 0 1-12.01 7.06l-2.1-2.75c.25-.5.73-1.3.73-2.6 0-1.57-.64-2.67-1.67-3.64v-2.65a4.72 4.72 0 0 0 1.67-3.64c0-1.55-.64-2.66-1.67-3.63v-2.66a4.72 4.72 0 0 0 1.67-3.63c0-1.56-.64-2.66-1.67-3.64v-2.65a4.73 4.73 0 0 0 1.67-3.64c0-1.27-.46-2.06-.73-2.6l2.1-2.75a20.88 20.88 0 0 1 12.02 7.06l3.46 4.12a7.15 7.15 0 0 0 10.97 0l3.46-4.12a20.88 20.88 0 0 1 12.01-7.06l2.1 2.75c-.25.5-.73 1.3-.73 2.6 0 1.57.64 2.67 1.67 3.64v2.65a4.72 4.72 0 0 0-1.67 3.64c0 1.55.64 2.66 1.67 3.63v2.66a4.72 4.72 0 0 0-1.67 3.63c0 1.56.64 2.66 1.67 3.64v2.65a4.72 4.72 0 0 0-1.67 3.64c0 1.26.45 2.05.73 2.6l-2.1 2.75Zm-20.96-15.24a8.63 8.63 0 0 1 6.63 3.1l3.46 4.12a19.34 19.34 0 0 0 10.25 6.34l.97-1.26a6.38 6.38 0 0 1 1.19-6.68v-1.39a6.3 6.3 0 0 1 0-8.54v-1.38a6.3 6.3 0 0 1 0-8.54v-1.39a6.23 6.23 0 0 1-1.2-6.69l-.96-1.25c-4 .97-7.6 3.2-10.25 6.35l-3.46 4.12a8.65 8.65 0 0 1-13.26 0l-3.46-4.12a19.34 19.34 0 0 0-10.25-6.35l-.97 1.25a6.39 6.39 0 0 1-1.19 6.7v1.38a6.23 6.23 0 0 1 1.67 4.27c0 1.58-.6 3.1-1.67 4.27v1.38a6.23 6.23 0 0 1 1.67 4.27 6.3 6.3 0 0 1-1.67 4.27v1.39a6.23 6.23 0 0 1 1.2 6.69l.96 1.25c4-.97 7.6-3.19 10.25-6.35l3.46-4.12a8.63 8.63 0 0 1 6.63-3.1Z" fill="#B79C10"/><path d="M42.84 39.95a17.27 17.27 0 0 1-7.17-5.06l-3.46-4.13a10.72 10.72 0 0 0-16.42 0l-3.46 4.13a17.27 17.27 0 0 1-7.17 5.06 8.38 8.38 0 0 0-1.55-6.03 8.35 8.35 0 0 0 0-9.92 8.35 8.35 0 0 0 0-9.92 8.38 8.38 0 0 0 1.55-6.03 17.27 17.27 0 0 1 7.17 5.06l3.46 4.13a10.72 10.72 0 0 0 16.42 0l3.46-4.13a17.27 17.27 0 0 1 7.17-5.06 8.38 8.38 0 0 0 1.55 6.03 8.4 8.4 0 0 0 0 9.92 8.4 8.4 0 0 0 0 9.92 8.37 8.37 0 0 0-1.55 6.03Z" fill="#FFE145"/><path d="M27.44 24a8.2 8.2 0 0 0 2.84-2.18l3.26-3.9-1.14-.95-3.27 3.89a6.72 6.72 0 0 1-10.27 0l-3.26-3.9-1.15.97 3.27 3.89a8.2 8.2 0 0 0 2.84 2.18 8.2 8.2 0 0 0-2.84 2.17l-3.26 3.9 1.15.96 3.26-3.9a6.72 6.72 0 0 1 10.27 0l3.26 3.9 1.15-.97-3.27-3.89a8.2 8.2 0 0 0-2.84-2.17Z" fill="#B79C10"/></g><defs><clipPath id="a"><path fill="#fff" d="M0 0h48v48h-48z"/></clipPath></defs></svg>