<svg viewBox="0 0 48 48" fill="none" xmlns="http://www.w3.org/2000/svg"><path d="M11.97 30.37v-1.3a8.07 8.07 0 0 1 8.06-8.07h3.82c5.75 0 10.58 4 11.85 9.37h-23.73Z" fill="#FFE145"/><path d="M48 32.43h-8.42a15.75 15.75 0 0 0-3.34-8.96 4.8 4.8 0 0 0-.03-2.63l2.47-2.48a2.65 2.65 0 1 0 1.56-4.76 2.65 2.65 0 1 0-4.76 1.56l-2.47 2.47a4.77 4.77 0 0 0-4.09.66 15.68 15.68 0 0 0-5.05-.83h-3.84c-6.42 0-11.62 5.2-11.63 11.62v3.35h-8.4v1.5h6.55l3.44 3.16h28.02l3.44-3.16h6.55v-1.5Zm-10.27-17.4-.77-.5a1.15 1.15 0 1 1 1.45-.15l1.06 1.06a1.15 1.15 0 1 1-.15 1.44l-.5-.77-3.3 3.3c-.3-.41-.67-.78-1.09-1.08l3.3-3.3Zm-27.82 14.05c0-5.59 4.53-10.12 10.12-10.12h3.84c1.28 0 2.54.17 3.77.5l-2.22 2.21 1.06 1.06 2.85-2.84a3.27 3.27 0 0 1 4.62 4.63l-2.84 2.84 1.06 1.06 2.84-2.84c.18-.18.35-.37.5-.58a14.25 14.25 0 0 1 2.56 7.43h-28.16v-3.35Zm27.52 6.5h-26.86l-1.8-1.65h30.46l-1.8 1.66Z" fill="#B79C10"/><path d="M12.97 28.4a1.03 1.03 0 1 0 2.06 0 1.03 1.03 0 0 0-2.06 0Zm4.93 0a1.03 1.03 0 1 0 2.06 0 1.03 1.03 0 0 0-2.06 0Zm-2.47-3.72a1.03 1.03 0 1 0 2.07 0 1.03 1.03 0 0 0-2.07 0Z" fill="#B79C10"/></svg>