<svg viewBox="0 0 48 48" fill="none" xmlns="http://www.w3.org/2000/svg"><path d="M18.72 18.17c-3.15 0-6.14.59-8.67 1.69a11.88 11.88 0 0 1-.02 14.8 22 22 0 0 0 8.7 1.68c6.15 0 11.28-4.07 14.66-9.09-3.38-5.01-8.5-9.08-14.67-9.08Z" fill="#FFE145"/><path d="M47.25 19.52c-4.18 0-7.97 3.08-10.5 6.36-2.87-4.54-7.3-8.69-12.57-10.4v-7.39l-12.48 7.43c-5.88 1.6-11.7 5.74-11.7 11.73 0 7.42 8.96 12.66 18.72 12.66 7.56 0 14.05-4.97 18.04-11.28 2.52 3.28 6.31 6.36 10.49 6.36h.75v-15.47h-.75Zm-24.57-8.79v4.33a19.8 19.8 0 0 0-6.74-.32l6.74-4Zm-21.18 16.52c0-3.81 2.93-6.8 6.31-8.6a11.13 11.13 0 0 1-.02 17.2c-3.38-1.8-6.29-4.8-6.29-8.6Zm17.22 11.16c-3.4 0-6.64-.64-9.45-1.84a12.64 12.64 0 0 0 .02-18.63c2.8-1.2 6.04-1.84 9.43-1.84 7.34 0 13.58 5.18 17.1 11.13l-.01.02.01.03c-3.52 5.97-9.77 11.13-17.1 11.13Zm27.78-4.96c-4.42-.46-7.9-4.83-8.9-6.2 1-1.36 4.47-5.73 8.9-6.2v12.4Z" fill="#B79C10"/></svg>