<svg viewBox="0 0 48 48" fill="none" xmlns="http://www.w3.org/2000/svg"><path d="M32.08 21.72v-21.72h-11.66v4.72h-5.08v16.98l-6.34-.01 3.66 26.31h22.1l3.65-26.26-6.33-.02Zm-5.08-20.22h3.58v20.19h-3.58v-20.19Zm-5.08 0h3.58v20.19h-3.58v-20.19Zm-5.08 4.72h3.58v15.47h-3.58v-15.47Zm16.61 40.28h-19.48l-3.24-23.3 25.95.04-3.23 23.26Z" fill="#B79C10"/><path d="m13.1 25.27 2.67 19.16h15.88l2.66-19.12-21.2-.04Zm10.61 15.86a5.55 5.55 0 1 1 0-11.1 5.55 5.55 0 0 1 0 11.1Z" fill="#FFE145"/><path d="M23.71 41.89a6.3 6.3 0 1 1 0-12.6 6.3 6.3 0 0 1 0 12.6Zm0-11.1a4.8 4.8 0 1 0 0 9.6 4.8 4.8 0 0 0 0-9.6Z" fill="#B79C10"/></svg>