<svg viewBox="0 0 48 48" fill="none" xmlns="http://www.w3.org/2000/svg"><path d="M24 11.9c-1.1-1.9-2.1-4.23-2.1-6.23a2.1 2.1 0 0 1 4.2 0c0 1.99-1.02 4.33-2.1 6.23Zm-11.2 13.09a2.1 2.1 0 0 1 0-4.22c1.98 0 4.32 1.03 6.22 2.11-1.9 1.1-4.23 2.11-6.23 2.11Zm22.4 0c-2 0-4.33-1.02-6.22-2.1 1.9-1.1 4.23-2.12 6.23-2.12a2.1 2.1 0 0 1 0 4.22Zm-22.4 13.92a2.1 2.1 0 0 1 0-4.22c1.98 0 4.32 1.03 6.22 2.12-1.9 1.09-4.23 2.1-6.23 2.1Zm22.4 0c-2 0-4.33-1.02-6.22-2.1 1.9-1.1 4.23-2.12 6.23-2.12a2.1 2.1 0 1 1 0 4.22Z" fill="#FFE145"/><path d="M35.2 31.13c-2.32 0-5 .86-7.96 2.56-1 .58-1.85 1.15-2.49 1.6v-10.9c.64.45 1.5 1.03 2.5 1.6 2.95 1.7 5.63 2.56 7.96 2.56a5.67 5.67 0 0 0 0-11.34c-2.33 0-5 .86-7.97 2.56-1 .57-1.85 1.15-2.49 1.6v-4.23a29.93 29.93 0 0 0 2.36-3.5c1.7-2.96 2.56-5.64 2.56-7.97a5.67 5.67 0 0 0-11.34 0c0 2.33.86 5 2.56 7.96.7 1.23 1.5 2.4 2.36 3.51v4.23c-.64-.45-1.5-1.03-2.5-1.6-2.95-1.7-5.63-2.56-7.96-2.56a5.67 5.67 0 0 0 0 11.35c2.33 0 5-.87 7.97-2.57 1-.57 1.85-1.14 2.49-1.6v10.9c-.64-.45-1.5-1.03-2.5-1.6-2.95-1.7-5.63-2.56-7.96-2.56a5.67 5.67 0 0 0 0 11.35c2.33 0 5-.87 7.97-2.57 1-.57 1.85-1.14 2.49-1.6v9.69h1.5v-9.69c.64.46 1.5 1.03 2.5 1.6 2.95 1.7 5.63 2.57 7.96 2.57a5.67 5.67 0 0 0 0-11.35Zm0-12.42a4.17 4.17 0 1 1 .01 8.34c-3.9 0-8.27-2.9-9.98-4.17 1.71-1.27 6.08-4.17 9.98-4.17Zm-15.37-13.04a4.17 4.17 0 1 1 8.34 0c0 3.9-2.9 8.27-4.17 9.98-1.27-1.71-4.17-6.07-4.17-9.98Zm-7.03 21.38a4.17 4.17 0 1 1 0-8.34c3.9 0 8.26 2.9 9.98 4.17-1.72 1.27-6.08 4.17-9.99 4.17Zm0 13.93a4.17 4.17 0 1 1 0-8.35c3.9 0 8.26 2.9 9.98 4.17-1.72 1.27-6.08 4.18-9.99 4.18Zm22.41 0c-3.9 0-8.26-2.91-9.98-4.18 1.72-1.26 6.09-4.17 9.98-4.17a4.17 4.17 0 1 1 0 8.35Z" fill="#B79C10"/></svg>