<svg viewBox="0 0 48 48" fill="none" xmlns="http://www.w3.org/2000/svg"><path d="M40.8 36.07v.94a3.7 3.7 0 0 1-3.7 3.7h-26.2a3.7 3.7 0 0 1-3.7-3.7v-.94h33.6Zm-.04-19.68v1.53h-33.52v-1.53a9.1 9.1 0 0 1 9.11-9.1h15.3a9.1 9.1 0 0 1 9.1 9.1Z" fill="#FFE145"/><path d="M48 26.24h-.94a3.88 3.88 0 0 0-2.74-6.25v-3.6c0-6.99-5.68-12.67-12.67-12.67h-15.3a12.68 12.68 0 0 0-12.67 12.67v3.6a3.88 3.88 0 0 0-2.74 6.25h-.94v1.5h2v6.27h1.63v3a7.28 7.28 0 0 0 7.28 7.27h26.18a7.28 7.28 0 0 0 7.28-7.27v-3h1.64v-6.27h1.99v-1.5Zm-42.82-9.85c0-6.17 5-11.16 11.17-11.17h15.3c6.17 0 11.16 5 11.17 11.17v3.59h-37.64v-3.6Zm-1.18 5.09h40a2.38 2.38 0 0 1 0 4.76h-40a2.38 2.38 0 0 1 0-4.76Zm33.79 6.26-3.08 1.41-3.07-1.4h6.15Zm5.07 9.27a5.78 5.78 0 0 1-5.77 5.77h-26.18a5.78 5.78 0 0 1-5.78-5.77v-3h37.74v3Zm1.65-4.5h-41.02v-4.77h25.71l5.51 3.32 5.5-3.32h4.3v4.77Z" fill="#B79C10"/></svg>