<svg viewBox="0 0 48 48" fill="none" xmlns="http://www.w3.org/2000/svg"><g clip-path="url(#a)"><path d="M24 44.44a20.44 20.44 0 1 1 .02 0h-.02Zm0-26.77a6.33 6.33 0 1 0 0 12.66 6.33 6.33 0 0 0 0-12.66Z" fill="#FFE145"/><path d="M24 48c-13.26 0-24-10.73-24-24s10.73-24 24-24 24 10.73 24 24-10.73 24-24 24Zm0-46.5a22.49 22.49 0 0 0-22.5 22.5 22.49 22.49 0 0 0 22.5 22.5 22.49 22.49 0 0 0 22.5-22.5 22.49 22.49 0 0 0-22.5-22.5Zm0 29.58a7.08 7.08 0 1 1 0-14.16 7.08 7.08 0 0 1 0 14.16Zm0-12.66a5.58 5.58 0 1 0 5.58 5.58c0-3.08-2.5-5.58-5.58-5.58Z" fill="#B79C10"/><path d="M28.57 12.5v-1.6a.75.75 0 0 0-1.5 0v1.6a.75.75 0 0 0 1.5 0Zm6.93-1.3v-1.6a.75.75 0 0 0-1.5 0v1.6a.75.75 0 0 0 1.5 0Zm.99 10.97v-1.6a.75.75 0 1 0-1.5 0v1.6a.75.75 0 0 0 1.5 0Zm-5.99 18.59v-1.6a.75.75 0 0 0-1.5 0v1.6a.75.75 0 0 0 1.5 0Zm-6.55-4.79v-1.6a.75.75 0 0 0-1.5 0v1.6a.75.75 0 1 0 1.5 0Zm-6.2 3.43v-1.6a.75.75 0 0 0-1.5 0v1.6a.75.75 0 0 0 1.5 0Zm23.8-9.75v-1.6a.75.75 0 1 0-1.5 0v1.6a.75.75 0 0 0 1.5 0Zm-7.83 2.7v-1.6a.75.75 0 0 0-1.5 0v1.6a.75.75 0 0 0 1.5 0Zm-18.75-13.59v-1.6a.75.75 0 0 0-1.5 0v1.6a.75.75 0 1 0 1.5 0Zm3.35-10.26v-1.6a.75.75 0 0 0-1.5 0v1.6a.75.75 0 1 0 1.5 0Zm-10.76 16v-1.6a.75.75 0 1 0-1.5 0v1.6a.75.75 0 0 0 1.5 0Zm6.98 7.11v-1.6a.75.75 0 1 0-1.5 0v1.6a.75.75 0 0 0 1.5 0Z" fill="#B79C10"/></g><defs><clipPath id="a"><path fill="#fff" d="M0 0h48v48h-48z"/></clipPath></defs></svg>